<svg xmlns="http://www.w3.org/2000/svg" xmlns:xlink="http://www.w3.org/1999/xlink" width="500" zoomAndPan="magnify" viewBox="0 0 375 374.999991" height="500" preserveAspectRatio="xMidYMid meet" version="1.0"><defs><g/></defs><g fill="#004aad" fill-opacity="1"><g transform="translate(44.191408, 215.998683)"><g><path d="M 180.140625 -75.8125 C 178.054688 -78.382812 175.785156 -80.6875 173.328125 -82.71875 C 170.878906 -84.75 168.265625 -86.5625 165.484375 -88.15625 C 158.429688 -92.125 151.164062 -94.25 143.6875 -94.53125 C 136.21875 -94.820312 128.6875 -93.640625 121.09375 -90.984375 C 113.5 -88.335938 106.007812 -84.554688 98.625 -79.640625 C 91.238281 -74.722656 84.117188 -69.03125 77.265625 -62.5625 C 70.421875 -56.09375 64 -49.191406 58 -41.859375 C 52.007812 -34.535156 46.59375 -27.125 41.75 -19.625 C 36.90625 -12.125 32.789062 -4.890625 29.40625 2.078125 C 27.925781 5.578125 26.492188 9.082031 25.109375 12.59375 C 24.460938 14.195312 23.804688 15.800781 23.140625 17.40625 C 23.046875 17.6875 22.941406 17.957031 22.828125 18.21875 C 22.609375 18.832031 22.351562 19.425781 22.0625 20 C 21.8125 20.476562 21.457031 20.804688 21 20.984375 C 20.550781 21.171875 20.070312 21.175781 19.5625 21 C 19.132812 20.84375 18.894531 20.507812 18.84375 20 C 18.84375 19.3125 18.898438 18.628906 19.015625 17.953125 C 19.441406 15.472656 19.773438 13 20.015625 10.53125 C 20.253906 8.0625 20.445312 5.59375 20.59375 3.125 C 20.664062 2.394531 20.71875 1.648438 20.75 0.890625 C 20.800781 0.554688 20.84375 0.207031 20.875 -0.15625 C 21.195312 -4.425781 21.46875 -8.707031 21.6875 -13 C 21.789062 -15.03125 21.820312 -17.039062 21.78125 -19.03125 C 21.78125 -19.789062 21.78125 -20.5625 21.78125 -21.34375 C 21.78125 -21.375 21.78125 -21.40625 21.78125 -21.4375 C 21.820312 -21.976562 21.789062 -22.507812 21.6875 -23.03125 C 21.601562 -23.382812 21.546875 -23.757812 21.515625 -24.15625 C 21.453125 -24.738281 21.34375 -25.3125 21.1875 -25.875 C 21.039062 -26.4375 20.753906 -26.9375 20.328125 -27.375 C 19.628906 -27.300781 19.066406 -27.035156 18.640625 -26.578125 C 18.222656 -26.117188 17.878906 -25.601562 17.609375 -25.03125 C 17.421875 -24.75 17.238281 -24.476562 17.0625 -24.21875 C 15.09375 -21.3125 13.347656 -18.28125 11.828125 -15.125 C 10.691406 -12.863281 9.5625 -10.613281 8.4375 -8.375 C 6.84375 -5.164062 5.253906 -1.953125 3.671875 1.265625 C 3.117188 2.316406 2.546875 3.351562 1.953125 4.375 C 1.671875 4.894531 1.332031 5.351562 0.9375 5.75 C 0.132812 6.4375 -0.664062 6.644531 -1.46875 6.375 C -2.269531 6.101562 -2.722656 5.4375 -2.828125 4.375 C -2.941406 2.78125 -2.90625 1.164062 -2.71875 -0.46875 C -2.507812 -3.488281 -2.222656 -6.5 -1.859375 -9.5 C -1.585938 -11.46875 -1.332031 -13.4375 -1.09375 -15.40625 C 0.445312 -27.414062 1.867188 -39.46875 3.171875 -51.5625 C 3.265625 -52.570312 3.445312 -53.585938 3.71875 -54.609375 C 3.894531 -55.335938 4.347656 -55.828125 5.078125 -56.078125 C 5.410156 -56.160156 5.71875 -56.125 6 -55.96875 C 6.289062 -55.820312 6.4375 -55.566406 6.4375 -55.203125 C 6.4375 -54.410156 6.394531 -53.597656 6.3125 -52.765625 C 5.945312 -47.316406 5.429688 -41.75 4.765625 -36.0625 C 4.097656 -30.375 3.367188 -24.679688 2.578125 -18.984375 C 1.910156 -14.085938 1.289062 -9.257812 0.71875 -4.5 C 0.6875 -4.144531 0.644531 -3.785156 0.59375 -3.421875 C 0.457031 -2.390625 0.332031 -1.375 0.21875 -0.375 C 0.21875 -0.257812 0.253906 -0.15625 0.328125 -0.0625 C 0.410156 0.03125 0.484375 0.09375 0.546875 0.125 C 0.628906 0.125 0.734375 0.0976562 0.859375 0.046875 C 0.984375 -0.00390625 1.0625 -0.0703125 1.09375 -0.15625 C 1.601562 -1.0625 2.097656 -1.984375 2.578125 -2.921875 C 3.484375 -4.734375 4.390625 -6.550781 5.296875 -8.375 C 7.109375 -12 8.941406 -15.628906 10.796875 -19.265625 C 12.035156 -21.648438 13.429688 -23.9375 14.984375 -26.125 C 15.703125 -27.207031 16.554688 -28.15625 17.546875 -28.96875 C 18.953125 -29.96875 20.253906 -30.296875 21.453125 -29.953125 C 22.660156 -29.609375 23.570312 -28.617188 24.1875 -26.984375 C 24.664062 -25.492188 24.9375 -23.953125 25 -22.359375 C 25.15625 -20.410156 25.191406 -18.453125 25.109375 -16.484375 C 25.035156 -14.523438 24.925781 -12.5625 24.78125 -10.59375 C 24.75 -10.226562 24.734375 -9.863281 24.734375 -9.5 C 24.515625 -6.050781 24.257812 -2.554688 23.96875 0.984375 C 23.863281 2.554688 23.753906 4.144531 23.640625 5.75 C 24.066406 5.445312 24.382812 5.148438 24.59375 4.859375 C 24.800781 4.578125 24.9375 4.3125 25 4.0625 C 25.03125 3.945312 25.085938 3.832031 25.171875 3.71875 C 28.210938 -3.5 32.078125 -10.941406 36.765625 -18.609375 C 41.453125 -26.273438 46.757812 -33.835938 52.6875 -41.296875 C 58.625 -48.753906 65.015625 -55.804688 71.859375 -62.453125 C 78.710938 -69.097656 85.859375 -75.003906 93.296875 -80.171875 C 100.742188 -85.347656 108.296875 -89.46875 115.953125 -92.53125 C 123.617188 -95.601562 131.226562 -97.3125 138.78125 -97.65625 C 146.332031 -98.007812 153.664062 -96.660156 160.78125 -93.609375 C 167.90625 -90.554688 174.628906 -85.503906 180.953125 -78.453125 C 181.015625 -78.359375 181.082031 -78.253906 181.15625 -78.140625 C 181.78125 -77.585938 182.234375 -76.898438 182.515625 -76.078125 C 182.597656 -75.785156 182.546875 -75.519531 182.359375 -75.28125 C 182.179688 -75.039062 181.941406 -74.898438 181.640625 -74.859375 C 181.316406 -74.859375 181.035156 -74.941406 180.796875 -75.109375 C 180.566406 -75.273438 180.347656 -75.507812 180.140625 -75.8125 Z M 180.140625 -75.8125 "/></g></g></g><g fill="#004aad" fill-opacity="1"><g transform="translate(91.432135, 215.998683)"><g><path d="M 9.84375 -10.421875 C 8.957031 -9.378906 7.910156 -8.421875 6.703125 -7.546875 C 5.503906 -6.671875 4.144531 -6.082031 2.625 -5.78125 C 1.101562 -5.476562 -0.0703125 -5.585938 -0.90625 -6.109375 C -1.75 -6.640625 -1.914062 -7.8125 -1.40625 -9.625 C -0.75 -11.507812 0.15625 -13.300781 1.3125 -15 C 1.570312 -15.363281 1.953125 -15.617188 2.453125 -15.765625 C 2.816406 -15.847656 3.132812 -15.785156 3.40625 -15.578125 C 3.675781 -15.378906 3.78125 -15.125 3.71875 -14.8125 C 3.46875 -14.207031 3.191406 -13.609375 2.890625 -13.015625 C 2.597656 -12.421875 2.398438 -12.035156 2.296875 -11.859375 C 1.722656 -10.804688 1.320312 -9.703125 1.09375 -8.546875 C 1.09375 -7.878906 1.972656 -7.832031 3.734375 -8.40625 C 5.503906 -8.988281 7.222656 -10.050781 8.890625 -11.59375 C 10.554688 -13.132812 11.351562 -13.585938 11.28125 -12.953125 C 11.207031 -12.316406 10.726562 -11.472656 9.84375 -10.421875 Z M 5.515625 -18.71875 C 5.429688 -18.65625 5.257812 -18.578125 5 -18.484375 C 4.75 -18.390625 4.476562 -18.320312 4.1875 -18.28125 C 3.90625 -18.238281 3.679688 -18.285156 3.515625 -18.421875 C 3.347656 -18.554688 3.335938 -18.820312 3.484375 -19.21875 C 3.753906 -19.90625 4.03125 -20.507812 4.3125 -21.03125 C 4.601562 -21.550781 4.984375 -22.125 5.453125 -22.75 C 5.742188 -23.03125 6.0625 -23.179688 6.40625 -23.203125 C 6.757812 -23.234375 7.050781 -23.144531 7.28125 -22.9375 C 7.507812 -22.726562 7.578125 -22.441406 7.484375 -22.078125 C 7.117188 -20.773438 6.460938 -19.65625 5.515625 -18.71875 Z M 5.515625 -18.71875 "/></g></g></g><g fill="#004aad" fill-opacity="1"><g transform="translate(101.088258, 215.998683)"><g><path d="M 11.984375 -11.8125 C 12.523438 -12.351562 12.976562 -12.65625 13.34375 -12.71875 C 13.707031 -12.789062 13.941406 -12.734375 14.046875 -12.546875 C 14.148438 -12.367188 14.082031 -12.125 13.84375 -11.8125 C 12.382812 -10.0625 10.753906 -8.550781 8.953125 -7.28125 C 7.160156 -6.007812 5.3125 -5.273438 3.40625 -5.078125 C 1.5 -4.878906 0.347656 -5.914062 -0.046875 -8.1875 C -0.347656 -10.457031 1.015625 -15.066406 4.046875 -22.015625 C 7.085938 -28.960938 9.492188 -34.65625 11.265625 -39.09375 C 11.410156 -39.488281 11.632812 -39.832031 11.9375 -40.125 C 12.332031 -40.519531 12.800781 -40.613281 13.34375 -40.40625 C 13.519531 -40.320312 13.695312 -40.1875 13.875 -40 C 14.0625 -39.820312 14.125 -39.503906 14.0625 -39.046875 C 6.257812 -20.523438 2.476562 -10.453125 2.71875 -8.828125 C 2.96875 -7.210938 4.007812 -6.8125 5.84375 -7.625 C 7.6875 -8.445312 9.109375 -9.28125 10.109375 -10.125 C 11.109375 -10.976562 11.734375 -11.539062 11.984375 -11.8125 Z M 11.984375 -11.8125 "/></g></g></g><g fill="#004aad" fill-opacity="1"><g transform="translate(113.44315, 215.998683)"><g><path d="M 11.984375 -11.8125 C 12.523438 -12.351562 12.976562 -12.65625 13.34375 -12.71875 C 13.707031 -12.789062 13.941406 -12.734375 14.046875 -12.546875 C 14.148438 -12.367188 14.082031 -12.125 13.84375 -11.8125 C 12.382812 -10.0625 10.753906 -8.550781 8.953125 -7.28125 C 7.160156 -6.007812 5.3125 -5.273438 3.40625 -5.078125 C 1.5 -4.878906 0.347656 -5.914062 -0.046875 -8.1875 C -0.347656 -10.457031 1.015625 -15.066406 4.046875 -22.015625 C 7.085938 -28.960938 9.492188 -34.65625 11.265625 -39.09375 C 11.410156 -39.488281 11.632812 -39.832031 11.9375 -40.125 C 12.332031 -40.519531 12.800781 -40.613281 13.34375 -40.40625 C 13.519531 -40.320312 13.695312 -40.1875 13.875 -40 C 14.0625 -39.820312 14.125 -39.503906 14.0625 -39.046875 C 6.257812 -20.523438 2.476562 -10.453125 2.71875 -8.828125 C 2.96875 -7.210938 4.007812 -6.8125 5.84375 -7.625 C 7.6875 -8.445312 9.109375 -9.28125 10.109375 -10.125 C 11.109375 -10.976562 11.734375 -11.539062 11.984375 -11.8125 Z M 11.984375 -11.8125 "/></g></g></g><g fill="#004aad" fill-opacity="1"><g transform="translate(125.798042, 215.998683)"><g><path d="M 9.84375 -10.421875 C 8.957031 -9.378906 7.910156 -8.421875 6.703125 -7.546875 C 5.503906 -6.671875 4.144531 -6.082031 2.625 -5.78125 C 1.101562 -5.476562 -0.0703125 -5.585938 -0.90625 -6.109375 C -1.75 -6.640625 -1.914062 -7.8125 -1.40625 -9.625 C -0.75 -11.507812 0.15625 -13.300781 1.3125 -15 C 1.570312 -15.363281 1.953125 -15.617188 2.453125 -15.765625 C 2.816406 -15.847656 3.132812 -15.785156 3.40625 -15.578125 C 3.675781 -15.378906 3.78125 -15.125 3.71875 -14.8125 C 3.46875 -14.207031 3.191406 -13.609375 2.890625 -13.015625 C 2.597656 -12.421875 2.398438 -12.035156 2.296875 -11.859375 C 1.722656 -10.804688 1.320312 -9.703125 1.09375 -8.546875 C 1.09375 -7.878906 1.972656 -7.832031 3.734375 -8.40625 C 5.503906 -8.988281 7.222656 -10.050781 8.890625 -11.59375 C 10.554688 -13.132812 11.351562 -13.585938 11.28125 -12.953125 C 11.207031 -12.316406 10.726562 -11.472656 9.84375 -10.421875 Z M 5.515625 -18.71875 C 5.429688 -18.65625 5.257812 -18.578125 5 -18.484375 C 4.75 -18.390625 4.476562 -18.320312 4.1875 -18.28125 C 3.90625 -18.238281 3.679688 -18.285156 3.515625 -18.421875 C 3.347656 -18.554688 3.335938 -18.820312 3.484375 -19.21875 C 3.753906 -19.90625 4.03125 -20.507812 4.3125 -21.03125 C 4.601562 -21.550781 4.984375 -22.125 5.453125 -22.75 C 5.742188 -23.03125 6.0625 -23.179688 6.40625 -23.203125 C 6.757812 -23.234375 7.050781 -23.144531 7.28125 -22.9375 C 7.507812 -22.726562 7.578125 -22.441406 7.484375 -22.078125 C 7.117188 -20.773438 6.460938 -19.65625 5.515625 -18.71875 Z M 5.515625 -18.71875 "/></g></g></g><g fill="#004aad" fill-opacity="1"><g transform="translate(135.454166, 215.998683)"><g><path d="M 17.953125 -12.609375 C 18.347656 -12.390625 18.378906 -11.851562 18.046875 -11 C 17.566406 -10.363281 17.054688 -9.773438 16.515625 -9.234375 C 15.972656 -8.691406 15.378906 -8.207031 14.734375 -7.78125 C 14.679688 -7.78125 14.65625 -7.757812 14.65625 -7.71875 C 14.226562 -7.425781 13.773438 -7.171875 13.296875 -6.953125 C 9.347656 -5.535156 7.332031 -6.367188 7.25 -9.453125 C 5.65625 -8.066406 4.582031 -7.21875 4.03125 -6.90625 C 2.726562 -6.132812 1.316406 -5.789062 -0.203125 -5.875 C -1.316406 -5.9375 -2.078125 -6.273438 -2.484375 -6.890625 C -2.890625 -7.515625 -2.851562 -8.351562 -2.375 -9.40625 C -1.644531 -11.070312 -0.613281 -12.554688 0.71875 -13.859375 C 2.28125 -15.316406 4.019531 -16.484375 5.9375 -17.359375 C 6.96875 -17.867188 8.039062 -18.066406 9.15625 -17.953125 C 10.28125 -17.878906 10.957031 -17.242188 11.1875 -16.046875 C 11.289062 -15.679688 11.203125 -15.359375 10.921875 -15.078125 C 10.554688 -14.742188 10.132812 -14.671875 9.65625 -14.859375 C 9.625 -14.859375 9.578125 -14.863281 9.515625 -14.875 C 9.460938 -14.894531 9.421875 -14.921875 9.390625 -14.953125 C 8.910156 -15.609375 8.425781 -15.882812 7.9375 -15.78125 C 7.445312 -15.675781 6.929688 -15.457031 6.390625 -15.125 C 3.847656 -13.644531 1.957031 -11.570312 0.71875 -8.90625 C 0.65625 -8.789062 0.613281 -8.660156 0.59375 -8.515625 C 0.570312 -8.378906 0.613281 -8.269531 0.71875 -8.1875 C 1.007812 -8.09375 1.335938 -8.113281 1.703125 -8.25 C 2.066406 -8.394531 2.429688 -8.601562 2.796875 -8.875 C 3.160156 -9.144531 3.46875 -9.375 3.71875 -9.5625 C 3.75 -9.601562 3.765625 -9.625 3.765625 -9.625 C 4.972656 -10.632812 6.148438 -11.664062 7.296875 -12.71875 C 7.816406 -13.269531 8.453125 -13.578125 9.203125 -13.640625 C 10.296875 -13.640625 10.753906 -13.15625 10.578125 -12.1875 C 10.472656 -11.820312 10.363281 -11.457031 10.25 -11.09375 C 9.820312 -9.519531 9.804688 -8.597656 10.203125 -8.328125 C 10.597656 -8.054688 11.203125 -8.054688 12.015625 -8.328125 C 12.835938 -8.597656 13.65625 -9.117188 14.46875 -9.890625 C 15.289062 -10.660156 15.976562 -11.363281 16.53125 -12 C 17.09375 -12.632812 17.566406 -12.835938 17.953125 -12.609375 Z M 17.953125 -12.609375 "/></g></g></g><g fill="#004aad" fill-opacity="1"><g transform="translate(151.869581, 215.998683)"><g><path d="M 25.875 -12.40625 C 26.445312 -12.769531 26.898438 -12.859375 27.234375 -12.671875 C 27.566406 -12.492188 27.441406 -11.984375 26.859375 -11.140625 C 26.128906 -10.171875 24.828125 -9.128906 22.953125 -8.015625 C 21.085938 -6.910156 19.4375 -6.425781 18 -6.5625 C 16.5625 -6.707031 16.144531 -7.769531 16.75 -9.75 C 17.351562 -11.726562 17.675781 -12.835938 17.71875 -13.078125 C 17.769531 -13.316406 17.722656 -13.453125 17.578125 -13.484375 C 17.441406 -13.523438 17.117188 -13.363281 16.609375 -13 C 15.128906 -11.976562 13.675781 -10.90625 12.25 -9.78125 C 11.644531 -9.320312 11.046875 -8.832031 10.453125 -8.3125 C 10.085938 -7.988281 9.707031 -7.660156 9.3125 -7.328125 C 9.3125 -7.328125 9.296875 -7.3125 9.265625 -7.28125 C 8.828125 -6.851562 8.296875 -6.5625 7.671875 -6.40625 C 7.390625 -6.320312 7.09375 -6.289062 6.78125 -6.3125 C 6.46875 -6.34375 6.203125 -6.46875 5.984375 -6.6875 C 5.742188 -6.9375 5.65625 -7.195312 5.71875 -7.46875 C 5.78125 -7.738281 5.984375 -8.144531 6.328125 -8.6875 C 6.679688 -9.226562 7.066406 -9.828125 7.484375 -10.484375 C 7.910156 -11.140625 8.144531 -11.539062 8.1875 -11.6875 C 8.238281 -11.832031 8.21875 -11.976562 8.125 -12.125 C 8.007812 -12.28125 7.878906 -12.328125 7.734375 -12.265625 C 7.597656 -12.210938 7.070312 -11.859375 6.15625 -11.203125 C 5.25 -10.546875 4.015625 -9.632812 2.453125 -8.46875 C 1.722656 -7.925781 1.015625 -7.363281 0.328125 -6.78125 C 0.140625 -6.601562 -0.0546875 -6.4375 -0.265625 -6.28125 C -0.785156 -5.851562 -1.347656 -5.625 -1.953125 -5.59375 C -2.398438 -5.5625 -2.726562 -5.660156 -2.9375 -5.890625 C -3.15625 -6.117188 -3.191406 -6.429688 -3.046875 -6.828125 C -2.941406 -7.128906 -2.816406 -7.40625 -2.671875 -7.65625 C -2.585938 -7.769531 -2.53125 -7.882812 -2.5 -8 C -1.195312 -10.632812 0.0859375 -13.28125 1.359375 -15.9375 C 1.390625 -16.007812 1.421875 -16.101562 1.453125 -16.21875 C 1.609375 -16.5 1.757812 -16.769531 1.90625 -17.03125 C 2.300781 -17.457031 2.769531 -17.597656 3.3125 -17.453125 C 3.945312 -17.273438 4.1875 -16.910156 4.03125 -16.359375 C 3.738281 -15.535156 3.453125 -14.71875 3.171875 -13.90625 C 3.023438 -13.550781 2.875 -13.191406 2.71875 -12.828125 C 2.476562 -12.179688 2.398438 -11.765625 2.484375 -11.578125 C 2.578125 -11.398438 2.988281 -11.523438 3.71875 -11.953125 C 4.207031 -12.285156 4.691406 -12.617188 5.171875 -12.953125 C 5.753906 -13.347656 6.316406 -13.707031 6.859375 -14.03125 C 7.703125 -14.550781 8.5625 -14.988281 9.4375 -15.34375 C 9.863281 -15.53125 10.300781 -15.664062 10.75 -15.75 C 11.207031 -15.84375 11.632812 -15.742188 12.03125 -15.453125 C 12.332031 -15.203125 12.460938 -14.921875 12.421875 -14.609375 C 12.378906 -14.296875 12.289062 -14 12.15625 -13.71875 C 11.925781 -13.175781 11.832031 -12.828125 11.875 -12.671875 C 11.914062 -12.523438 12.039062 -12.492188 12.25 -12.578125 C 12.46875 -12.671875 12.847656 -12.882812 13.390625 -13.21875 C 13.929688 -13.550781 14.519531 -13.914062 15.15625 -14.3125 C 15.945312 -14.820312 16.78125 -15.304688 17.65625 -15.765625 C 18.375 -16.242188 19.148438 -16.535156 19.984375 -16.640625 C 21.117188 -16.722656 21.582031 -16.265625 21.375 -15.265625 C 21.164062 -14.265625 20.765625 -13.070312 20.171875 -11.6875 C 19.578125 -10.3125 19.515625 -9.46875 19.984375 -9.15625 C 20.460938 -8.84375 21.507812 -9.269531 23.125 -10.4375 C 24.738281 -11.601562 25.65625 -12.257812 25.875 -12.40625 Z M 25.875 -12.40625 "/></g></g></g><g fill="#004aad" fill-opacity="1"><g transform="translate(196.782935, 215.998683)"><g><path d="M 10.390625 -9.953125 C 6.578125 -2.210938 4.566406 1.867188 4.359375 2.296875 C 4.109375 2.773438 3.851562 3.269531 3.59375 3.78125 C 3.519531 3.914062 3.46875 4.054688 3.4375 4.203125 C 2.925781 5.191406 2.429688 6.191406 1.953125 7.203125 C -1.046875 13.273438 -3.910156 19.375 -6.640625 25.5 C -6.640625 25.582031 -6.660156 25.65625 -6.703125 25.71875 C -6.742188 25.875 -6.8125 26.023438 -6.90625 26.171875 C -7.269531 26.679688 -7.722656 26.894531 -8.265625 26.8125 C -8.410156 26.84375 -8.5625 26.84375 -8.71875 26.8125 C -9.007812 26.75 -9.234375 26.625 -9.390625 26.4375 C -9.546875 26.257812 -9.578125 26.003906 -9.484375 25.671875 C -9.085938 24.460938 -8.617188 23.265625 -8.078125 22.078125 C -6.171875 18.054688 -4.28125 14.003906 -2.40625 9.921875 C -1.28125 7.492188 -0.148438 5.0625 0.984375 2.625 C 1.484375 1.644531 3.015625 -1.441406 5.578125 -6.640625 C 8.148438 -11.847656 9.648438 -14.90625 10.078125 -15.8125 C 13.460938 -22.71875 17.019531 -29.550781 20.75 -36.3125 C 23.144531 -40.738281 25.503906 -45.1875 27.828125 -49.65625 C 28.085938 -50.207031 28.414062 -50.695312 28.8125 -51.125 C 29.144531 -51.457031 29.539062 -51.65625 30 -51.71875 C 30.15625 -51.800781 30.304688 -51.816406 30.453125 -51.765625 C 30.816406 -51.816406 31.097656 -51.722656 31.296875 -51.484375 C 31.492188 -51.242188 31.535156 -50.957031 31.421875 -50.625 C 31.316406 -50.375 31.207031 -50.117188 31.09375 -49.859375 C 30.445312 -48.304688 29.722656 -46.765625 28.921875 -45.234375 C 26.222656 -40.046875 23.5 -34.867188 20.75 -29.703125 C 19.332031 -27.066406 17.9375 -24.421875 16.5625 -21.765625 C 15.863281 -20.492188 15.1875 -19.207031 14.53125 -17.90625 C 14.28125 -17.425781 14.035156 -16.9375 13.796875 -16.4375 C 13.742188 -16.351562 13.703125 -16.28125 13.671875 -16.21875 C 13.566406 -16.03125 13.484375 -15.847656 13.421875 -15.671875 C 13.367188 -15.492188 13.375 -15.328125 13.4375 -15.171875 C 13.550781 -15.023438 13.703125 -14.9375 13.890625 -14.90625 C 14.066406 -14.9375 14.25 -14.96875 14.4375 -15 C 14.5 -15.050781 14.570312 -15.09375 14.65625 -15.125 C 16.65625 -15.707031 18.648438 -16.285156 20.640625 -16.859375 C 26.242188 -18.492188 31.8125 -20.21875 37.34375 -22.03125 C 42.882812 -23.84375 48.378906 -25.859375 53.828125 -28.078125 C 57.222656 -29.460938 60.582031 -30.925781 63.90625 -32.46875 C 67.238281 -34.007812 70.503906 -35.722656 73.703125 -37.609375 C 76.378906 -39.171875 78.894531 -41.007812 81.25 -43.125 C 82.425781 -44.164062 83.453125 -45.347656 84.328125 -46.671875 C 86.085938 -49.304688 86.191406 -51.769531 84.640625 -54.0625 C 83.703125 -55.4375 82.507812 -56.5625 81.0625 -57.4375 C 78.875 -58.851562 76.507812 -59.957031 73.96875 -60.75 C 67.75 -62.65625 61.28125 -63.863281 54.5625 -64.375 C 50.613281 -64.65625 46.617188 -64.8125 42.578125 -64.84375 C 40.398438 -64.84375 38.207031 -64.789062 36 -64.6875 C 32.695312 -64.539062 29.378906 -64.25 26.046875 -63.8125 C 22.722656 -63.375 19.410156 -62.628906 16.109375 -61.578125 C 14.015625 -60.898438 11.972656 -60.03125 9.984375 -58.96875 C 8.441406 -58.238281 7.078125 -57.273438 5.890625 -56.078125 C 5.554688 -55.710938 5.171875 -55.441406 4.734375 -55.265625 C 4.515625 -55.160156 4.316406 -55.125 4.140625 -55.15625 C 3.773438 -55.125 3.46875 -55.234375 3.21875 -55.484375 C 2.882812 -55.847656 2.882812 -56.242188 3.21875 -56.671875 C 3.726562 -57.359375 4.316406 -57.957031 4.984375 -58.46875 C 5.648438 -58.988281 6.347656 -59.445312 7.078125 -59.84375 C 10.410156 -61.769531 13.878906 -63.1875 17.484375 -64.09375 C 21.867188 -65.21875 26.265625 -65.90625 30.671875 -66.15625 C 34.953125 -66.476562 39.238281 -66.660156 43.53125 -66.703125 L 43.625 -66.703125 C 44.425781 -66.703125 45.242188 -66.703125 46.078125 -66.703125 C 50.179688 -66.628906 54.242188 -66.421875 58.265625 -66.078125 C 62.296875 -65.734375 66.28125 -65.125 70.21875 -64.25 C 72.238281 -63.78125 74.234375 -63.226562 76.203125 -62.59375 C 78.171875 -61.957031 80.0625 -61.160156 81.875 -60.203125 C 83.875 -59.234375 85.613281 -57.960938 87.09375 -56.390625 C 90.363281 -52.816406 90.195312 -48.847656 86.59375 -44.484375 C 84.925781 -42.554688 83.054688 -40.863281 80.984375 -39.40625 C 78.367188 -37.53125 75.679688 -35.835938 72.921875 -34.328125 C 70.171875 -32.816406 67.363281 -31.425781 64.5 -30.15625 C 58.570312 -27.425781 52.570312 -24.976562 46.5 -22.8125 C 40.4375 -20.65625 34.34375 -18.671875 28.21875 -16.859375 C 23.414062 -15.410156 18.625 -14.015625 13.84375 -12.671875 C 13.082031 -12.492188 12.40625 -12.191406 11.8125 -11.765625 C 11.226562 -11.347656 10.753906 -10.742188 10.390625 -9.953125 Z M 93.859375 10.609375 C 95.441406 11.972656 86.03125 9.609375 65.625 3.515625 C 51.644531 -0.742188 37.546875 -4.765625 23.328125 -8.546875 C 19.359375 -9.546875 15.378906 -10.519531 11.390625 -11.46875 C 9.785156 -11.875 8.179688 -12.257812 6.578125 -12.625 C 6.035156 -12.757812 5.492188 -12.867188 4.953125 -12.953125 C 4.847656 -12.953125 4.738281 -12.96875 4.625 -13 C 4.257812 -13 4.3125 -13.476562 4.78125 -14.4375 C 5.257812 -15.40625 5.84375 -15.707031 6.53125 -15.34375 C 7.4375 -14.863281 9.578125 -14.15625 12.953125 -13.21875 C 16.328125 -12.28125 20.691406 -11.082031 26.046875 -9.625 C 36.160156 -6.96875 48.25 -3.585938 62.3125 0.515625 C 81.769531 5.878906 92.285156 9.242188 93.859375 10.609375 Z M 93.859375 10.609375 "/></g></g></g><g fill="#004aad" fill-opacity="1"><g transform="translate(251.525744, 215.998683)"><g><path d="M 3.9375 -5.875 L 3.859375 -5.875 C 1.460938 -5.90625 -0.109375 -6.4375 -0.859375 -7.46875 C -1.617188 -8.5 -1.585938 -9.875 -0.765625 -11.59375 C -0.078125 -12.894531 0.796875 -14.03125 1.859375 -15 C 2.222656 -15.332031 2.59375 -15.597656 2.96875 -15.796875 C 3.351562 -15.992188 3.785156 -16.09375 4.265625 -16.09375 C 4.535156 -16.144531 4.851562 -16.09375 5.21875 -15.9375 C 5.332031 -15.90625 5.453125 -15.863281 5.578125 -15.8125 C 5.847656 -15.863281 6.117188 -15.957031 6.390625 -16.09375 C 6.453125 -16.144531 6.539062 -16.1875 6.65625 -16.21875 C 7.207031 -16.425781 7.785156 -16.515625 8.390625 -16.484375 C 8.640625 -16.484375 8.894531 -16.484375 9.15625 -16.484375 C 10.132812 -16.335938 10.867188 -15.929688 11.359375 -15.265625 C 11.859375 -14.597656 12.035156 -13.785156 11.890625 -12.828125 C 11.804688 -12.242188 11.625 -11.695312 11.34375 -11.1875 C 9.4375 -7.789062 7.015625 -6.019531 4.078125 -5.875 Z M 7.84375 -14.734375 C 6.539062 -14.785156 5.378906 -14.410156 4.359375 -13.609375 C 3.347656 -12.804688 2.59375 -11.882812 2.09375 -10.84375 C 1.601562 -9.800781 1.46875 -8.945312 1.6875 -8.28125 C 1.914062 -7.613281 2.609375 -7.425781 3.765625 -7.71875 C 5.066406 -8.113281 6.21875 -8.859375 7.21875 -9.953125 C 8.21875 -11.046875 8.828125 -12.082031 9.046875 -13.0625 C 9.273438 -14.039062 8.875 -14.597656 7.84375 -14.734375 Z M 7.84375 -14.734375 "/></g></g></g><g fill="#004aad" fill-opacity="1"><g transform="translate(264.672922, 215.998683)"><g><path d="M 25.875 -12.40625 C 26.445312 -12.769531 26.898438 -12.859375 27.234375 -12.671875 C 27.566406 -12.492188 27.441406 -11.984375 26.859375 -11.140625 C 26.128906 -10.171875 24.828125 -9.128906 22.953125 -8.015625 C 21.085938 -6.910156 19.4375 -6.425781 18 -6.5625 C 16.5625 -6.707031 16.144531 -7.769531 16.75 -9.75 C 17.351562 -11.726562 17.675781 -12.835938 17.71875 -13.078125 C 17.769531 -13.316406 17.722656 -13.453125 17.578125 -13.484375 C 17.441406 -13.523438 17.117188 -13.363281 16.609375 -13 C 15.128906 -11.976562 13.675781 -10.90625 12.25 -9.78125 C 11.644531 -9.320312 11.046875 -8.832031 10.453125 -8.3125 C 10.085938 -7.988281 9.707031 -7.660156 9.3125 -7.328125 C 9.3125 -7.328125 9.296875 -7.3125 9.265625 -7.28125 C 8.828125 -6.851562 8.296875 -6.5625 7.671875 -6.40625 C 7.390625 -6.320312 7.09375 -6.289062 6.78125 -6.3125 C 6.46875 -6.34375 6.203125 -6.46875 5.984375 -6.6875 C 5.742188 -6.9375 5.65625 -7.195312 5.71875 -7.46875 C 5.78125 -7.738281 5.984375 -8.144531 6.328125 -8.6875 C 6.679688 -9.226562 7.066406 -9.828125 7.484375 -10.484375 C 7.910156 -11.140625 8.144531 -11.539062 8.1875 -11.6875 C 8.238281 -11.832031 8.21875 -11.976562 8.125 -12.125 C 8.007812 -12.28125 7.878906 -12.328125 7.734375 -12.265625 C 7.597656 -12.210938 7.070312 -11.859375 6.15625 -11.203125 C 5.25 -10.546875 4.015625 -9.632812 2.453125 -8.46875 C 1.722656 -7.925781 1.015625 -7.363281 0.328125 -6.78125 C 0.140625 -6.601562 -0.0546875 -6.4375 -0.265625 -6.28125 C -0.785156 -5.851562 -1.347656 -5.625 -1.953125 -5.59375 C -2.398438 -5.5625 -2.726562 -5.660156 -2.9375 -5.890625 C -3.15625 -6.117188 -3.191406 -6.429688 -3.046875 -6.828125 C -2.941406 -7.128906 -2.816406 -7.40625 -2.671875 -7.65625 C -2.585938 -7.769531 -2.53125 -7.882812 -2.5 -8 C -1.195312 -10.632812 0.0859375 -13.28125 1.359375 -15.9375 C 1.390625 -16.007812 1.421875 -16.101562 1.453125 -16.21875 C 1.609375 -16.5 1.757812 -16.769531 1.90625 -17.03125 C 2.300781 -17.457031 2.769531 -17.597656 3.3125 -17.453125 C 3.945312 -17.273438 4.1875 -16.910156 4.03125 -16.359375 C 3.738281 -15.535156 3.453125 -14.71875 3.171875 -13.90625 C 3.023438 -13.550781 2.875 -13.191406 2.71875 -12.828125 C 2.476562 -12.179688 2.398438 -11.765625 2.484375 -11.578125 C 2.578125 -11.398438 2.988281 -11.523438 3.71875 -11.953125 C 4.207031 -12.285156 4.691406 -12.617188 5.171875 -12.953125 C 5.753906 -13.347656 6.316406 -13.707031 6.859375 -14.03125 C 7.703125 -14.550781 8.5625 -14.988281 9.4375 -15.34375 C 9.863281 -15.53125 10.300781 -15.664062 10.75 -15.75 C 11.207031 -15.84375 11.632812 -15.742188 12.03125 -15.453125 C 12.332031 -15.203125 12.460938 -14.921875 12.421875 -14.609375 C 12.378906 -14.296875 12.289062 -14 12.15625 -13.71875 C 11.925781 -13.175781 11.832031 -12.828125 11.875 -12.671875 C 11.914062 -12.523438 12.039062 -12.492188 12.25 -12.578125 C 12.46875 -12.671875 12.847656 -12.882812 13.390625 -13.21875 C 13.929688 -13.550781 14.519531 -13.914062 15.15625 -14.3125 C 15.945312 -14.820312 16.78125 -15.304688 17.65625 -15.765625 C 18.375 -16.242188 19.148438 -16.535156 19.984375 -16.640625 C 21.117188 -16.722656 21.582031 -16.265625 21.375 -15.265625 C 21.164062 -14.265625 20.765625 -13.070312 20.171875 -11.6875 C 19.578125 -10.3125 19.515625 -9.46875 19.984375 -9.15625 C 20.460938 -8.84375 21.507812 -9.269531 23.125 -10.4375 C 24.738281 -11.601562 25.65625 -12.257812 25.875 -12.40625 Z M 25.875 -12.40625 "/></g></g></g><g fill="#004aad" fill-opacity="1"><g transform="translate(290.868241, 215.998683)"><g><path d="M 14.109375 -9.5 C 13.148438 -8.5625 12.035156 -7.757812 10.765625 -7.09375 C 9.492188 -6.425781 8.425781 -5.988281 7.5625 -5.78125 C 6.707031 -5.570312 5.828125 -5.453125 4.921875 -5.421875 C 3.472656 -5.359375 2.140625 -5.554688 0.921875 -6.015625 C -1.078125 -6.828125 -1.769531 -8.367188 -1.15625 -10.640625 C -0.582031 -12.609375 0.582031 -14.144531 2.34375 -15.25 C 4.113281 -16.351562 5.941406 -16.890625 7.828125 -16.859375 C 7.828125 -16.859375 7.84375 -16.859375 7.875 -16.859375 C 8.351562 -16.890625 8.804688 -16.859375 9.234375 -16.765625 C 9.960938 -16.492188 10.425781 -16.0625 10.625 -15.46875 C 10.820312 -14.875 10.6875 -14.21875 10.21875 -13.5 C 9.164062 -11.894531 7.734375 -11 5.921875 -10.8125 C 4.710938 -10.695312 3.546875 -10.757812 2.421875 -11 C 2.210938 -11.03125 2.023438 -10.96875 1.859375 -10.8125 C 1.691406 -10.664062 1.59375 -10.488281 1.5625 -10.28125 C 1.226562 -8.851562 1.664062 -7.941406 2.875 -7.546875 C 4.351562 -7.035156 5.894531 -7.035156 7.5 -7.546875 C 9.351562 -8.128906 11.113281 -9.21875 12.78125 -10.8125 C 14.445312 -12.414062 15.40625 -13.164062 15.65625 -13.0625 C 15.914062 -12.957031 15.992188 -12.644531 15.890625 -12.125 C 15.660156 -11.320312 15.066406 -10.445312 14.109375 -9.5 Z M 3.5625 -13.5 C 3.46875 -13.375 3.398438 -13.242188 3.359375 -13.109375 C 3.316406 -12.972656 3.367188 -12.84375 3.515625 -12.71875 C 4.085938 -12.394531 4.710938 -12.273438 5.390625 -12.359375 C 6.066406 -12.453125 6.640625 -12.707031 7.109375 -13.125 C 7.585938 -13.550781 7.789062 -14.070312 7.71875 -14.6875 C 7.675781 -14.894531 7.5625 -15.023438 7.375 -15.078125 C 7.195312 -15.140625 7.015625 -15.15625 6.828125 -15.125 C 5.609375 -14.914062 4.519531 -14.375 3.5625 -13.5 Z M 3.5625 -13.5 "/></g></g></g><g fill="#004aad" fill-opacity="1"><g transform="translate(305.27816, 215.998683)"><g><path d="M 11.875 -15.203125 C 11.726562 -14.066406 11.191406 -13.320312 10.265625 -12.96875 C 9.347656 -12.625 9.050781 -13.078125 9.375 -14.328125 C 9.695312 -15.585938 9.128906 -15.90625 7.671875 -15.28125 C 6.222656 -14.664062 5.023438 -13.890625 4.078125 -12.953125 C 2.628906 -11.460938 1.34375 -9.859375 0.21875 -8.140625 C 0.101562 -7.992188 0.015625 -7.875 -0.046875 -7.78125 C -0.378906 -7.300781 -0.710938 -6.84375 -1.046875 -6.40625 C -1.253906 -6.113281 -1.503906 -5.929688 -1.796875 -5.859375 C -2.085938 -5.785156 -2.378906 -5.769531 -2.671875 -5.8125 C -2.953125 -5.851562 -3.164062 -5.960938 -3.3125 -6.140625 C -3.46875 -6.316406 -3.484375 -6.53125 -3.359375 -6.78125 C -3.179688 -7.226562 -2.96875 -7.679688 -2.71875 -8.140625 C -1.238281 -10.898438 0.269531 -13.664062 1.8125 -16.4375 C 1.84375 -16.46875 1.859375 -16.5 1.859375 -16.53125 C 2.066406 -16.96875 2.320312 -17.363281 2.625 -17.71875 C 2.957031 -18.082031 3.335938 -18.234375 3.765625 -18.171875 C 4.191406 -18.109375 4.476562 -17.851562 4.625 -17.40625 C 4.8125 -16.820312 4.96875 -16.492188 5.09375 -16.421875 C 5.226562 -16.347656 5.523438 -16.40625 5.984375 -16.59375 C 6.984375 -16.945312 7.953125 -17.195312 8.890625 -17.34375 C 9.828125 -17.5 10.597656 -17.460938 11.203125 -17.234375 C 11.804688 -17.015625 12.03125 -16.335938 11.875 -15.203125 Z M 11.875 -15.203125 "/></g></g></g><g fill="#004aad" fill-opacity="1"><g transform="translate(317.657805, 215.998683)"><g><path d="M 3.9375 -5.875 L 3.859375 -5.875 C 1.460938 -5.90625 -0.109375 -6.4375 -0.859375 -7.46875 C -1.617188 -8.5 -1.585938 -9.875 -0.765625 -11.59375 C -0.078125 -12.894531 0.796875 -14.03125 1.859375 -15 C 2.222656 -15.332031 2.59375 -15.597656 2.96875 -15.796875 C 3.351562 -15.992188 3.785156 -16.09375 4.265625 -16.09375 C 4.535156 -16.144531 4.851562 -16.09375 5.21875 -15.9375 C 5.332031 -15.90625 5.453125 -15.863281 5.578125 -15.8125 C 5.847656 -15.863281 6.117188 -15.957031 6.390625 -16.09375 C 6.453125 -16.144531 6.539062 -16.1875 6.65625 -16.21875 C 7.207031 -16.425781 7.785156 -16.515625 8.390625 -16.484375 C 8.640625 -16.484375 8.894531 -16.484375 9.15625 -16.484375 C 10.132812 -16.335938 10.867188 -15.929688 11.359375 -15.265625 C 11.859375 -14.597656 12.035156 -13.785156 11.890625 -12.828125 C 11.804688 -12.242188 11.625 -11.695312 11.34375 -11.1875 C 9.4375 -7.789062 7.015625 -6.019531 4.078125 -5.875 Z M 7.84375 -14.734375 C 6.539062 -14.785156 5.378906 -14.410156 4.359375 -13.609375 C 3.347656 -12.804688 2.59375 -11.882812 2.09375 -10.84375 C 1.601562 -9.800781 1.46875 -8.945312 1.6875 -8.28125 C 1.914062 -7.613281 2.609375 -7.425781 3.765625 -7.71875 C 5.066406 -8.113281 6.21875 -8.859375 7.21875 -9.953125 C 8.21875 -11.046875 8.828125 -12.082031 9.046875 -13.0625 C 9.273438 -14.039062 8.875 -14.597656 7.84375 -14.734375 Z M 7.84375 -14.734375 "/></g></g></g></svg>