<svg xmlns="http://www.w3.org/2000/svg" xmlns:xlink="http://www.w3.org/1999/xlink" width="500" zoomAndPan="magnify" viewBox="0 0 375 374.999991" height="500" preserveAspectRatio="xMidYMid meet" version="1.0"><defs><g/><clipPath id="dbeabf2a91"><path d="M 0 44 L 239 44 L 239 193 L 0 193 Z M 0 44 " clip-rule="nonzero"/></clipPath><clipPath id="04b77bf448"><path d="M 288 127 L 320.640625 127 L 320.640625 160 L 288 160 Z M 288 127 " clip-rule="nonzero"/></clipPath><clipPath id="cc5fe8dd98"><rect x="0" width="321" y="0" height="227"/></clipPath></defs><g transform="matrix(1, 0, 0, 1, 0, 78)"><g clip-path="url(#cc5fe8dd98)"><g clip-path="url(#dbeabf2a91)"><g fill="#6d1d2a" fill-opacity="1"><g transform="translate(63.04267, 158.845587)"><g><path d="M 172.1875 -94.65625 C 172 -94.1875 171.8125 -93.71875 171.625 -93.25 C 169.800781 -88.488281 167.828125 -83.804688 165.703125 -79.203125 C 154.773438 -56.472656 143.035156 -34.492188 130.484375 -13.265625 C 126.398438 -6.410156 122.226562 0.320312 117.96875 6.9375 C 113.707031 13.5625 109.414062 20.15625 105.09375 26.71875 C 104.070312 28.257812 103.039062 29.800781 102 31.34375 C 101.945312 31.476562 101.894531 31.570312 101.84375 31.625 C 101.601562 32.09375 101.328125 32.484375 101.015625 32.796875 C 100.703125 33.109375 100.285156 33.265625 99.765625 33.265625 C 99.523438 33.265625 99.273438 33.207031 99.015625 33.09375 C 98.753906 32.976562 98.546875 32.828125 98.390625 32.640625 C 98.253906 32.484375 98.160156 32.226562 98.109375 31.875 C 98.054688 31.519531 98.082031 31.238281 98.1875 31.03125 C 98.894531 29.507812 99.679688 28.070312 100.546875 26.71875 C 102.484375 23.550781 104.429688 20.382812 106.390625 17.21875 C 110.078125 11.332031 113.703125 5.4375 117.265625 -0.46875 C 125.160156 -13.65625 132.703125 -27.113281 139.890625 -40.84375 C 147.085938 -54.570312 154.113281 -68.445312 160.96875 -82.46875 C 163.707031 -87.875 165.96875 -93.664062 167.75 -99.84375 C 168.113281 -100.914062 168.394531 -102.023438 168.59375 -103.171875 C 168.789062 -104.328125 168.890625 -105.519531 168.890625 -106.75 C 168.703125 -109.382812 167.578125 -110.535156 165.515625 -110.203125 C 163.679688 -109.835938 161.953125 -109.257812 160.328125 -108.46875 C 156.484375 -106.613281 152.691406 -104.5625 148.953125 -102.3125 C 128.867188 -90.125 110.578125 -74.992188 94.078125 -56.921875 C 93.835938 -56.628906 93.578125 -56.34375 93.296875 -56.0625 C 87.585938 -49.863281 81.925781 -43.613281 76.3125 -37.3125 C 70.707031 -31.007812 65.265625 -24.519531 59.984375 -17.84375 C 58.878906 -16.457031 57.726562 -15.164062 56.53125 -13.96875 C 55.25 -12.632812 53.71875 -12.109375 51.9375 -12.390625 C 51.175781 -12.492188 50.554688 -12.863281 50.078125 -13.5 C 49.597656 -14.144531 49.410156 -14.898438 49.515625 -15.765625 C 49.878906 -18.117188 50.398438 -20.394531 51.078125 -22.59375 C 53.191406 -29.550781 55.441406 -36.414062 57.828125 -43.1875 C 58.160156 -44.238281 58.472656 -45.25 58.765625 -46.21875 C 59.390625 -48.75 60.28125 -51.085938 61.4375 -53.234375 C 61.4375 -53.285156 61.410156 -53.3125 61.359375 -53.3125 C 61.066406 -53.46875 60.773438 -53.59375 60.484375 -53.6875 C 60.203125 -53.78125 59.914062 -53.679688 59.625 -53.390625 C 58.582031 -52.242188 57.578125 -51.039062 56.609375 -49.78125 C 48.660156 -39.007812 40.785156 -28.144531 32.984375 -17.1875 C 25.191406 -6.226562 17.582031 4.910156 10.15625 16.234375 C 9.53125 17.335938 8.832031 18.234375 8.0625 18.921875 C 7.289062 19.617188 6.265625 19.847656 4.984375 19.609375 C 4.410156 19.453125 3.960938 19.097656 3.640625 18.546875 C 3.328125 18.003906 3.265625 17.472656 3.453125 16.953125 C 4.128906 15.410156 4.875 13.941406 5.6875 12.546875 C 7.988281 8.578125 10.265625 4.601562 12.515625 0.625 C 17.035156 -7.25 21.519531 -15.160156 25.96875 -23.109375 C 32.875 -35.296875 39.035156 -48.125 44.453125 -61.59375 C 46.566406 -66.769531 48.289062 -72.207031 49.625 -77.90625 C 50.351562 -80.945312 50.664062 -84.113281 50.5625 -87.40625 C 50.226562 -92.6875 48.476562 -96.460938 45.3125 -98.734375 C 42.144531 -101.015625 37.984375 -102.09375 32.828125 -101.96875 C 27.679688 -101.851562 21.96875 -100.800781 15.6875 -98.8125 C 9.414062 -96.832031 2.984375 -94.207031 -3.609375 -90.9375 C -10.203125 -87.664062 -16.554688 -84.054688 -22.671875 -80.109375 C -28.796875 -76.160156 -34.242188 -72.15625 -39.015625 -68.09375 C -43.785156 -64.039062 -47.503906 -60.238281 -50.171875 -56.6875 C -52.972656 -52.757812 -55.351562 -48.441406 -57.3125 -43.734375 C -58.3125 -41.492188 -58.890625 -39.050781 -59.046875 -36.40625 C -59.097656 -35.882812 -59.359375 -35.492188 -59.828125 -35.234375 C -60.296875 -34.972656 -60.816406 -34.894531 -61.390625 -35 C -62.304688 -35.28125 -62.882812 -36 -63.125 -37.15625 C -63.28125 -38.664062 -63.160156 -40.050781 -62.765625 -41.3125 C -61.898438 -44.476562 -60.75 -47.472656 -59.3125 -50.296875 C -56.675781 -55.234375 -52.660156 -60.28125 -47.265625 -65.4375 C -41.878906 -70.59375 -35.601562 -75.53125 -28.4375 -80.25 C -21.269531 -84.96875 -13.789062 -89.175781 -6 -92.875 C 1.789062 -96.570312 9.410156 -99.445312 16.859375 -101.5 C 24.316406 -103.5625 31.035156 -104.484375 37.015625 -104.265625 C 42.992188 -104.054688 47.707031 -102.414062 51.15625 -99.34375 C 54.601562 -96.269531 56.273438 -91.425781 56.171875 -84.8125 C 55.992188 -80.550781 55.328125 -76.5 54.171875 -72.65625 C 52.503906 -67.007812 50.578125 -61.550781 48.390625 -56.28125 C 46.203125 -51.007812 43.878906 -45.847656 41.421875 -40.796875 C 40.671875 -39.234375 40.507812 -38.46875 40.9375 -38.5 C 41.363281 -38.539062 42.007812 -39.140625 42.875 -40.296875 C 45.988281 -44.421875 49.101562 -48.5 52.21875 -52.53125 C 54.332031 -55.21875 56.488281 -57.859375 58.6875 -60.453125 C 58.976562 -60.816406 59.265625 -61.171875 59.546875 -61.515625 C 60.804688 -63.054688 62.328125 -64.085938 64.109375 -64.609375 C 65.441406 -64.898438 66.5625 -64.597656 67.46875 -63.703125 C 68.382812 -62.816406 68.703125 -61.484375 68.421875 -59.703125 C 68.367188 -59.523438 68.316406 -59.34375 68.265625 -59.15625 C 67.785156 -56.851562 67.234375 -54.617188 66.609375 -52.453125 C 64.941406 -47.140625 63.21875 -41.867188 61.4375 -36.640625 C 60.570312 -33.941406 59.707031 -31.207031 58.84375 -28.4375 C 58.664062 -28.050781 58.40625 -27.332031 58.0625 -26.28125 C 57.71875 -25.363281 57.390625 -24.460938 57.078125 -23.578125 C 56.765625 -22.691406 56.515625 -22.007812 56.328125 -21.53125 C 56.566406 -21.71875 58.703125 -24.113281 62.734375 -28.71875 C 68.191406 -34.988281 74.660156 -42.332031 82.140625 -50.75 C 89.628906 -59.175781 95.503906 -65.613281 99.765625 -70.0625 C 107.640625 -77.988281 115.9375 -85.203125 124.65625 -91.703125 C 133.375 -98.203125 142.414062 -104.078125 151.78125 -109.328125 C 154.082031 -110.535156 156.453125 -111.625 158.890625 -112.59375 C 159.410156 -112.769531 159.914062 -112.976562 160.40625 -113.21875 C 162.707031 -114.132812 165.15625 -114.472656 167.75 -114.234375 C 172.71875 -113.765625 174.992188 -110.628906 174.578125 -104.828125 C 174.285156 -101.210938 173.488281 -97.820312 172.1875 -94.65625 Z M 61.15625 -53.546875 C 61.289062 -53.441406 61.382812 -53.363281 61.4375 -53.3125 C 61.4375 -53.3125 61.4375 -53.285156 61.4375 -53.234375 C 61.488281 -53.234375 61.515625 -53.257812 61.515625 -53.3125 C 61.410156 -53.363281 61.289062 -53.441406 61.15625 -53.546875 Z M 61.15625 -53.546875 "/></g></g></g></g><g fill="#6d1d2a" fill-opacity="1"><g transform="translate(210.901247, 158.845587)"><g><path d="M 22.359375 -15.0625 C 20.847656 -13.570312 19.082031 -12.296875 17.0625 -11.234375 C 15.050781 -10.179688 13.363281 -9.488281 12 -9.15625 C 10.644531 -8.832031 9.25 -8.644531 7.8125 -8.59375 C 5.507812 -8.488281 3.390625 -8.800781 1.453125 -9.53125 C -1.710938 -10.8125 -2.8125 -13.257812 -1.84375 -16.875 C -0.925781 -19.976562 0.925781 -22.40625 3.71875 -24.15625 C 6.519531 -25.914062 9.410156 -26.769531 12.390625 -26.71875 C 12.390625 -26.71875 12.414062 -26.71875 12.46875 -26.71875 C 13.226562 -26.769531 13.953125 -26.71875 14.640625 -26.5625 C 15.785156 -26.144531 16.515625 -25.460938 16.828125 -24.515625 C 17.140625 -23.578125 16.929688 -22.53125 16.203125 -21.375 C 14.523438 -18.84375 12.25 -17.429688 9.375 -17.140625 C 7.46875 -16.960938 5.625 -17.054688 3.84375 -17.421875 C 3.5 -17.472656 3.195312 -17.378906 2.9375 -17.140625 C 2.675781 -16.910156 2.519531 -16.625 2.46875 -16.28125 C 1.945312 -14.03125 2.640625 -12.59375 4.546875 -11.96875 C 6.898438 -11.15625 9.347656 -11.15625 11.890625 -11.96875 C 14.816406 -12.882812 17.597656 -14.609375 20.234375 -17.140625 C 22.878906 -19.679688 24.40625 -20.863281 24.8125 -20.6875 C 25.21875 -20.519531 25.34375 -20.03125 25.1875 -19.21875 C 24.820312 -17.9375 23.878906 -16.550781 22.359375 -15.0625 Z M 5.65625 -21.375 C 5.488281 -21.195312 5.375 -20.992188 5.3125 -20.765625 C 5.25 -20.546875 5.335938 -20.347656 5.578125 -20.171875 C 6.484375 -19.640625 7.472656 -19.445312 8.546875 -19.59375 C 9.617188 -19.738281 10.523438 -20.144531 11.265625 -20.8125 C 12.015625 -21.476562 12.335938 -22.296875 12.234375 -23.265625 C 12.160156 -23.609375 11.976562 -23.820312 11.6875 -23.90625 C 11.40625 -24 11.117188 -24.019531 10.828125 -23.96875 C 8.890625 -23.625 7.164062 -22.757812 5.65625 -21.375 Z M 5.65625 -21.375 "/></g></g></g><g fill="#6d1d2a" fill-opacity="1"><g transform="translate(233.733216, 158.845587)"><g><path d="M 31.078125 -19.578125 C 31.492188 -19.054688 30.96875 -18.101562 29.5 -16.71875 C 28.03125 -15.332031 26.472656 -14.164062 24.828125 -13.21875 C 23.179688 -12.28125 21.273438 -11.335938 19.109375 -10.390625 C 17.671875 -9.765625 16.140625 -9.554688 14.515625 -9.765625 C 12.890625 -9.972656 12.078125 -10.953125 12.078125 -12.703125 C 12.078125 -14.460938 12.484375 -16.203125 13.296875 -17.921875 C 14.109375 -19.703125 14.285156 -20.617188 13.828125 -20.671875 C 13.367188 -20.722656 12.421875 -20.289062 10.984375 -19.375 C 7.242188 -16.914062 3.765625 -14.101562 0.546875 -10.9375 C -0.316406 -9.894531 -1.414062 -9.320312 -2.75 -9.21875 C -3.425781 -9.21875 -3.953125 -9.429688 -4.328125 -9.859375 C -4.710938 -10.296875 -4.757812 -10.765625 -4.46875 -11.265625 C -2.164062 -15.523438 0.160156 -19.734375 2.515625 -23.890625 C 3.035156 -24.753906 3.816406 -25.289062 4.859375 -25.5 C 5.304688 -25.582031 5.71875 -25.445312 6.09375 -25.09375 C 6.476562 -24.738281 6.671875 -24.335938 6.671875 -23.890625 C 6.617188 -23.472656 6.445312 -22.976562 6.15625 -22.40625 C 6.03125 -22.0625 5.90625 -21.734375 5.78125 -21.421875 C 5.664062 -21.109375 5.628906 -20.847656 5.671875 -20.640625 C 5.710938 -20.429688 5.875 -20.363281 6.15625 -20.4375 C 6.550781 -20.644531 6.945312 -20.867188 7.34375 -21.109375 C 8.332031 -21.679688 9.285156 -22.226562 10.203125 -22.75 C 11.015625 -23.21875 11.863281 -23.632812 12.75 -24 C 13.632812 -24.375 14.5625 -24.625 15.53125 -24.75 C 17.101562 -24.851562 18.210938 -24.5 18.859375 -23.6875 C 19.515625 -22.882812 19.597656 -21.765625 19.109375 -20.328125 C 18.585938 -19.015625 18.035156 -17.71875 17.453125 -16.4375 C 16.742188 -15.238281 16.625 -14.320312 17.09375 -13.6875 C 17.570312 -13.0625 19.757812 -13.78125 23.65625 -15.84375 L 26.59375 -17.578125 C 29.363281 -19.359375 30.859375 -20.023438 31.078125 -19.578125 Z M 31.078125 -19.578125 "/></g></g></g><g fill="#6d1d2a" fill-opacity="1"><g transform="translate(262.488956, 158.845587)"><g><path d="M 24.515625 -18.953125 C 21.015625 -14.816406 17.582031 -11.765625 14.21875 -9.796875 C 10.863281 -7.835938 7.269531 -7.191406 3.4375 -7.859375 C -0.394531 -8.523438 -1.972656 -11.097656 -1.296875 -15.578125 C -0.828125 -17.828125 -0.1875 -20.023438 0.625 -22.171875 C 2.632812 -27.160156 4.675781 -32.128906 6.75 -37.078125 C 7.425781 -38.847656 8.144531 -40.640625 8.90625 -42.453125 C 9.09375 -42.835938 9.265625 -43.226562 9.421875 -43.625 C 9.703125 -44.28125 9.988281 -44.945312 10.28125 -45.625 C 10.695312 -46.769531 10.238281 -47.367188 8.90625 -47.421875 C 8.144531 -47.421875 7.398438 -47.421875 6.671875 -47.421875 C 6.328125 -47.421875 5.945312 -47.421875 5.53125 -47.421875 C 5.132812 -47.367188 4.726562 -47.316406 4.3125 -47.265625 C 3.632812 -47.210938 2.960938 -47.1875 2.296875 -47.1875 C 1.628906 -47.1875 1.007812 -47.359375 0.4375 -47.703125 C 0.28125 -47.753906 0.15625 -47.851562 0.0625 -48 C -0.03125 -48.144531 -0.078125 -48.304688 -0.078125 -48.484375 C -0.0234375 -48.585938 0.0546875 -48.710938 0.171875 -48.859375 C 0.296875 -49.003906 0.445312 -49.101562 0.625 -49.15625 C 1.195312 -49.394531 1.800781 -49.566406 2.4375 -49.671875 C 4.050781 -49.742188 5.65625 -49.804688 7.25 -49.859375 C 7.882812 -49.859375 8.4375 -49.859375 8.90625 -49.859375 C 9.945312 -49.859375 10.722656 -49.894531 11.234375 -49.96875 C 11.742188 -50.050781 12.15625 -50.328125 12.46875 -50.796875 C 12.789062 -51.273438 13.160156 -52 13.578125 -52.96875 C 13.804688 -53.488281 14.09375 -54.0625 14.4375 -54.6875 C 15.300781 -56.519531 16.164062 -58.390625 17.03125 -60.296875 C 17.414062 -61.160156 17.816406 -62 18.234375 -62.8125 C 18.578125 -63.625 19.113281 -64.25 19.84375 -64.6875 C 20.550781 -65.03125 21.164062 -65.003906 21.6875 -64.609375 C 21.851562 -64.503906 21.976562 -64.332031 22.0625 -64.09375 C 22.15625 -63.863281 22.203125 -63.65625 22.203125 -63.46875 C 22.203125 -62.445312 21.941406 -61.441406 21.421875 -60.453125 C 21.316406 -60.242188 21.195312 -59.992188 21.0625 -59.703125 C 20.726562 -58.765625 20.363281 -57.8125 19.96875 -56.84375 C 19.207031 -55.0625 18.488281 -53.242188 17.8125 -51.390625 C 17.625 -51.046875 17.613281 -50.742188 17.78125 -50.484375 C 17.957031 -50.222656 18.21875 -50.09375 18.5625 -50.09375 C 20.414062 -50.039062 22.234375 -50.015625 24.015625 -50.015625 C 24.921875 -50.015625 25.832031 -50.015625 26.75 -50.015625 C 29.632812 -49.960938 30.785156 -49.554688 30.203125 -48.796875 C 29.816406 -48.359375 29.394531 -48.101562 28.9375 -48.03125 C 28.476562 -47.96875 28.015625 -47.976562 27.546875 -48.0625 C 27.253906 -48.0625 26.960938 -48.0625 26.671875 -48.0625 C 23.742188 -47.875 20.84375 -47.753906 17.96875 -47.703125 C 16.632812 -47.703125 15.742188 -47.101562 15.296875 -45.90625 C 14.828125 -44.75 14.367188 -43.597656 13.921875 -42.453125 C 13.273438 -40.929688 12.660156 -39.453125 12.078125 -38.015625 C 11.503906 -36.648438 10.929688 -35.273438 10.359375 -33.890625 C 8.867188 -30.390625 7.429688 -26.875 6.046875 -23.34375 C 5.179688 -21.039062 4.5 -18.6875 4 -16.28125 C 2.90625 -11.914062 4.59375 -10.242188 9.0625 -11.265625 C 13.457031 -12.304688 18.0625 -15.46875 22.875 -20.75 C 24.96875 -22.082031 25.515625 -21.484375 24.515625 -18.953125 Z M 24.515625 -18.953125 "/></g></g></g><g fill="#6d1d2a" fill-opacity="1"><g transform="translate(284.771702, 158.845587)"><g><path d="M 15.59375 -16.53125 C 14.195312 -14.875 12.539062 -13.351562 10.625 -11.96875 C 8.71875 -10.582031 6.5625 -9.644531 4.15625 -9.15625 C 1.75 -8.675781 -0.117188 -8.851562 -1.453125 -9.6875 C -2.785156 -10.519531 -3.046875 -12.378906 -2.234375 -15.265625 C -1.191406 -18.242188 0.242188 -21.082031 2.078125 -23.78125 C 2.492188 -24.351562 3.097656 -24.753906 3.890625 -24.984375 C 4.460938 -25.117188 4.960938 -25.019531 5.390625 -24.6875 C 5.828125 -24.363281 5.992188 -23.953125 5.890625 -23.453125 C 5.492188 -22.515625 5.0625 -21.570312 4.59375 -20.625 C 4.125 -19.6875 3.804688 -19.078125 3.640625 -18.796875 C 2.734375 -17.117188 2.09375 -15.363281 1.71875 -13.53125 C 1.71875 -12.488281 3.117188 -12.425781 5.921875 -13.34375 C 8.722656 -14.257812 11.441406 -15.9375 14.078125 -18.375 C 16.722656 -20.820312 17.984375 -21.539062 17.859375 -20.53125 C 17.742188 -19.53125 16.988281 -18.195312 15.59375 -16.53125 Z M 8.75 -29.65625 C 8.613281 -29.550781 8.34375 -29.425781 7.9375 -29.28125 C 7.539062 -29.132812 7.113281 -29.03125 6.65625 -28.96875 C 6.195312 -28.90625 5.832031 -28.976562 5.5625 -29.1875 C 5.300781 -29.394531 5.289062 -29.8125 5.53125 -30.4375 C 5.945312 -31.539062 6.382812 -32.503906 6.84375 -33.328125 C 7.300781 -34.148438 7.894531 -35.054688 8.625 -36.046875 C 9.101562 -36.492188 9.613281 -36.738281 10.15625 -36.78125 C 10.707031 -36.820312 11.164062 -36.675781 11.53125 -36.34375 C 11.894531 -36.019531 12 -35.570312 11.84375 -35 C 11.269531 -32.925781 10.238281 -31.144531 8.75 -29.65625 Z M 8.75 -29.65625 "/></g></g></g><g clip-path="url(#04b77bf448)"><g fill="#6d1d2a" fill-opacity="1"><g transform="translate(300.071466, 158.845587)"><g><path d="M 18.984375 -19.890625 C 14.859375 -18.347656 11.878906 -17.09375 10.046875 -16.125 C 8.710938 -15.46875 7.945312 -14.921875 7.75 -14.484375 C 7.550781 -14.054688 7.703125 -13.269531 8.203125 -12.125 C 8.203125 -12.070312 8.238281 -11.992188 8.3125 -11.890625 C 8.894531 -10.503906 9.238281 -9.066406 9.34375 -7.578125 C 9.519531 -4.566406 6.957031 -2.457031 1.65625 -1.25 C -3.632812 -0.0507812 -7.175781 -0.015625 -8.96875 -1.140625 C -10.757812 -2.265625 -11.304688 -3.6875 -10.609375 -5.40625 C -9.921875 -7.132812 -8.125 -8.890625 -5.21875 -10.671875 C -2.3125 -12.453125 -0.367188 -13.734375 0.609375 -14.515625 C 1.585938 -15.296875 1.878906 -16.171875 1.484375 -17.140625 C 1.359375 -17.484375 1.21875 -17.820312 1.0625 -18.15625 C 0.71875 -18.96875 0.363281 -19.804688 0 -20.671875 C -0.675781 -22.242188 -0.96875 -23.785156 -0.875 -25.296875 C -0.789062 -26.816406 -0.234375 -28.09375 0.796875 -29.125 C 1.835938 -30.15625 3.441406 -30.710938 5.609375 -30.796875 C 6.835938 -30.847656 7.9375 -30.679688 8.90625 -30.296875 C 9.875 -29.921875 10.644531 -29.222656 11.21875 -28.203125 C 11.6875 -27.492188 11.539062 -26.851562 10.78125 -26.28125 C 10.289062 -25.894531 9.757812 -25.84375 9.1875 -26.125 C 8.8125 -26.28125 8.457031 -26.503906 8.125 -26.796875 C 8.125 -26.867188 8.125 -26.90625 8.125 -26.90625 C 7.96875 -27.007812 7.820312 -27.113281 7.6875 -27.21875 C 7.53125 -27.457031 7.359375 -27.644531 7.171875 -27.78125 C 6.492188 -28.269531 5.804688 -28.414062 5.109375 -28.21875 C 4.421875 -28.03125 3.90625 -27.503906 3.5625 -26.640625 C 3.332031 -25.960938 3.21875 -25.269531 3.21875 -24.5625 C 3.269531 -23.695312 3.46875 -22.859375 3.8125 -22.046875 C 4.039062 -21.546875 4.25 -21.085938 4.4375 -20.671875 C 4.875 -19.523438 5.238281 -18.734375 5.53125 -18.296875 C 5.820312 -17.867188 6.164062 -17.6875 6.5625 -17.75 C 6.96875 -17.8125 10.675781 -19.140625 17.6875 -21.734375 C 19.207031 -22.234375 19.640625 -21.617188 18.984375 -19.890625 Z M 2 -4.90625 C 3.832031 -5.53125 4.601562 -6.757812 4.3125 -8.59375 C 4.3125 -8.71875 4.285156 -8.859375 4.234375 -9.015625 C 4.128906 -10.015625 3.921875 -10.78125 3.609375 -11.3125 C 3.296875 -11.851562 2.585938 -11.835938 1.484375 -11.265625 C -1.234375 -9.710938 -3.742188 -7.90625 -6.046875 -5.84375 C -6.203125 -5.664062 -6.34375 -5.492188 -6.46875 -5.328125 C -6.46875 -5.328125 -6.492188 -5.289062 -6.546875 -5.21875 C -6.703125 -5.007812 -6.726562 -4.773438 -6.625 -4.515625 C -6.519531 -4.253906 -6.285156 -4.125 -5.921875 -4.125 C -3.234375 -3.695312 -0.59375 -3.957031 2 -4.90625 Z M 2 -4.90625 "/></g></g></g></g></g></g></svg>