<svg xmlns="http://www.w3.org/2000/svg" xmlns:xlink="http://www.w3.org/1999/xlink" width="500" zoomAndPan="magnify" viewBox="0 0 375 374.999991" height="500" preserveAspectRatio="xMidYMid meet" version="1.0"><defs><g/></defs><g fill="#004aad" fill-opacity="1"><g transform="translate(93.364919, 252.498485)"><g><path d="M 219.234375 -120.53125 C 218.992188 -119.925781 218.757812 -119.328125 218.53125 -118.734375 C 216.195312 -112.671875 213.679688 -106.707031 210.984375 -100.84375 C 197.066406 -71.90625 182.113281 -43.921875 166.125 -16.890625 C 160.9375 -8.160156 155.628906 0.414062 150.203125 8.84375 C 144.773438 17.269531 139.3125 25.660156 133.8125 34.015625 C 132.507812 35.984375 131.195312 37.945312 129.875 39.90625 C 129.800781 40.070312 129.734375 40.191406 129.671875 40.265625 C 129.367188 40.859375 129.015625 41.351562 128.609375 41.75 C 128.210938 42.15625 127.679688 42.359375 127.015625 42.359375 C 126.722656 42.359375 126.410156 42.28125 126.078125 42.125 C 125.742188 41.976562 125.476562 41.789062 125.28125 41.5625 C 125.113281 41.363281 124.992188 41.035156 124.921875 40.578125 C 124.859375 40.128906 124.894531 39.773438 125.03125 39.515625 C 125.925781 37.578125 126.921875 35.742188 128.015625 34.015625 C 130.484375 29.984375 132.96875 25.953125 135.46875 21.921875 C 140.15625 14.429688 144.765625 6.925781 149.296875 -0.59375 C 159.359375 -17.382812 168.96875 -34.519531 178.125 -52 C 187.28125 -69.476562 196.21875 -87.144531 204.9375 -105 C 208.4375 -111.882812 211.316406 -119.257812 213.578125 -127.125 C 214.046875 -128.488281 214.40625 -129.898438 214.65625 -131.359375 C 214.90625 -132.828125 215.03125 -134.34375 215.03125 -135.90625 C 214.800781 -139.269531 213.367188 -140.738281 210.734375 -140.3125 C 208.398438 -139.84375 206.203125 -139.109375 204.140625 -138.109375 C 199.242188 -135.742188 194.414062 -133.128906 189.65625 -130.265625 C 164.082031 -114.742188 140.789062 -95.484375 119.78125 -72.484375 C 119.476562 -72.109375 119.144531 -71.738281 118.78125 -71.375 C 111.519531 -63.488281 104.316406 -55.53125 97.171875 -47.5 C 90.035156 -39.476562 83.101562 -31.222656 76.375 -22.734375 C 74.976562 -20.960938 73.515625 -19.3125 71.984375 -17.78125 C 70.347656 -16.082031 68.398438 -15.414062 66.140625 -15.78125 C 65.171875 -15.914062 64.378906 -16.390625 63.765625 -17.203125 C 63.148438 -18.023438 62.90625 -18.984375 63.03125 -20.078125 C 63.5 -23.078125 64.164062 -25.972656 65.03125 -28.765625 C 67.726562 -37.628906 70.59375 -46.375 73.625 -55 C 74.0625 -56.332031 74.460938 -57.613281 74.828125 -58.84375 C 75.617188 -62.070312 76.75 -65.050781 78.21875 -67.78125 C 78.21875 -67.84375 78.1875 -67.875 78.125 -67.875 C 77.757812 -68.082031 77.390625 -68.242188 77.015625 -68.359375 C 76.648438 -68.472656 76.285156 -68.347656 75.921875 -67.984375 C 74.585938 -66.515625 73.304688 -64.984375 72.078125 -63.390625 C 61.953125 -49.671875 51.925781 -35.832031 42 -21.875 C 32.082031 -7.925781 22.394531 6.253906 12.9375 20.671875 C 12.132812 22.078125 11.242188 23.21875 10.265625 24.09375 C 9.285156 24.976562 7.976562 25.269531 6.34375 24.96875 C 5.613281 24.769531 5.046875 24.320312 4.640625 23.625 C 4.242188 22.925781 4.160156 22.242188 4.390625 21.578125 C 5.253906 19.609375 6.207031 17.742188 7.25 15.984375 C 10.175781 10.921875 13.070312 5.859375 15.9375 0.796875 C 21.695312 -9.222656 27.40625 -19.296875 33.0625 -29.421875 C 41.851562 -44.941406 49.695312 -61.273438 56.59375 -78.421875 C 59.289062 -85.015625 61.488281 -91.941406 63.1875 -99.203125 C 64.113281 -103.066406 64.515625 -107.09375 64.390625 -111.28125 C 63.953125 -118.007812 61.71875 -122.820312 57.6875 -125.71875 C 53.65625 -128.613281 48.359375 -129.988281 41.796875 -129.84375 C 35.242188 -129.695312 27.96875 -128.359375 19.96875 -125.828125 C 11.976562 -123.296875 3.789062 -119.945312 -4.59375 -115.78125 C -12.988281 -111.625 -21.082031 -107.03125 -28.875 -102 C -36.664062 -96.96875 -43.597656 -91.867188 -49.671875 -86.703125 C -55.753906 -81.546875 -60.492188 -76.703125 -63.890625 -72.171875 C -67.453125 -67.179688 -70.476562 -61.6875 -72.96875 -55.6875 C -74.238281 -52.820312 -74.972656 -49.710938 -75.171875 -46.359375 C -75.242188 -45.691406 -75.578125 -45.191406 -76.171875 -44.859375 C -76.773438 -44.523438 -77.441406 -44.425781 -78.171875 -44.5625 C -79.335938 -44.925781 -80.070312 -45.835938 -80.375 -47.296875 C -80.570312 -49.234375 -80.421875 -51 -79.921875 -52.59375 C -78.816406 -56.625 -77.351562 -60.4375 -75.53125 -64.03125 C -72.164062 -70.320312 -67.050781 -76.75 -60.1875 -83.3125 C -53.332031 -89.875 -45.34375 -96.160156 -36.21875 -102.171875 C -27.09375 -108.179688 -17.566406 -113.539062 -7.640625 -118.25 C 2.285156 -122.96875 11.992188 -126.632812 21.484375 -129.25 C 30.972656 -131.863281 39.519531 -133.035156 47.125 -132.765625 C 54.738281 -132.492188 60.742188 -130.398438 65.140625 -126.484375 C 69.535156 -122.578125 71.664062 -116.410156 71.53125 -107.984375 C 71.289062 -102.554688 70.441406 -97.394531 68.984375 -92.5 C 66.847656 -85.3125 64.390625 -78.363281 61.609375 -71.65625 C 58.828125 -64.945312 55.875 -58.378906 52.75 -51.953125 C 51.78125 -49.953125 51.570312 -48.972656 52.125 -49.015625 C 52.675781 -49.066406 53.5 -49.828125 54.59375 -51.296875 C 58.550781 -56.554688 62.515625 -61.75 66.484375 -66.875 C 69.179688 -70.3125 71.925781 -73.675781 74.71875 -76.96875 C 75.09375 -77.4375 75.460938 -77.890625 75.828125 -78.328125 C 77.421875 -80.285156 79.351562 -81.597656 81.625 -82.265625 C 83.320312 -82.628906 84.75 -82.242188 85.90625 -81.109375 C 87.070312 -79.984375 87.472656 -78.285156 87.109375 -76.015625 C 87.046875 -75.785156 86.976562 -75.554688 86.90625 -75.328125 C 86.3125 -72.390625 85.613281 -69.539062 84.8125 -66.78125 C 82.6875 -60.019531 80.488281 -53.3125 78.21875 -46.65625 C 77.125 -43.226562 76.023438 -39.75 74.921875 -36.21875 C 74.691406 -35.71875 74.359375 -34.800781 73.921875 -33.46875 C 73.492188 -32.300781 73.078125 -31.148438 72.671875 -30.015625 C 72.273438 -28.890625 71.960938 -28.023438 71.734375 -27.421875 C 72.023438 -27.648438 74.738281 -30.695312 79.875 -36.5625 C 86.832031 -44.550781 95.070312 -53.90625 104.59375 -64.625 C 114.113281 -75.351562 121.585938 -83.546875 127.015625 -89.203125 C 137.046875 -99.296875 147.613281 -108.476562 158.71875 -116.75 C 169.820312 -125.03125 181.332031 -132.515625 193.25 -139.203125 C 196.1875 -140.734375 199.203125 -142.117188 202.296875 -143.359375 C 202.960938 -143.585938 203.613281 -143.851562 204.25 -144.15625 C 207.175781 -145.320312 210.285156 -145.753906 213.578125 -145.453125 C 219.910156 -144.847656 222.8125 -140.851562 222.28125 -133.46875 C 221.90625 -128.875 220.890625 -124.5625 219.234375 -120.53125 Z M 77.875 -68.1875 C 78.039062 -68.050781 78.15625 -67.945312 78.21875 -67.875 C 78.21875 -67.875 78.21875 -67.84375 78.21875 -67.78125 C 78.289062 -67.78125 78.328125 -67.8125 78.328125 -67.875 C 78.191406 -67.945312 78.039062 -68.050781 77.875 -68.1875 Z M 77.875 -68.1875 "/></g></g></g></svg>