<svg xmlns="http://www.w3.org/2000/svg" xmlns:xlink="http://www.w3.org/1999/xlink" width="500" zoomAndPan="magnify" viewBox="0 0 375 374.999991" height="500" preserveAspectRatio="xMidYMid meet" version="1.0"><defs><g/><clipPath id="857cdadb74"><rect x="0" width="362" y="0" height="256"/></clipPath></defs><g transform="matrix(1, 0, 0, 1, 0, 68)"><g clip-path="url(#857cdadb74)"><g fill="#004aad" fill-opacity="1"><g transform="translate(71.796345, 179.26679)"><g><path d="M 193.515625 -106.390625 C 193.304688 -105.859375 193.097656 -105.328125 192.890625 -104.796875 C 190.835938 -99.453125 188.617188 -94.191406 186.234375 -89.015625 C 173.953125 -63.472656 160.753906 -38.769531 146.640625 -14.90625 C 142.054688 -7.195312 137.367188 0.367188 132.578125 7.796875 C 127.785156 15.234375 122.96875 22.644531 118.125 30.03125 C 116.96875 31.757812 115.804688 33.492188 114.640625 35.234375 C 114.578125 35.378906 114.515625 35.476562 114.453125 35.53125 C 114.191406 36.0625 113.882812 36.503906 113.53125 36.859375 C 113.175781 37.210938 112.707031 37.390625 112.125 37.390625 C 111.851562 37.390625 111.570312 37.320312 111.28125 37.1875 C 110.988281 37.050781 110.753906 36.882812 110.578125 36.6875 C 110.429688 36.507812 110.328125 36.222656 110.265625 35.828125 C 110.210938 35.429688 110.242188 35.113281 110.359375 34.875 C 111.148438 33.164062 112.03125 31.550781 113 30.03125 C 115.175781 26.46875 117.367188 22.910156 119.578125 19.359375 C 123.722656 12.742188 127.789062 6.113281 131.78125 -0.53125 C 140.65625 -15.34375 149.132812 -30.460938 157.21875 -45.890625 C 165.300781 -61.328125 173.195312 -76.921875 180.90625 -92.671875 C 183.988281 -98.753906 186.53125 -105.265625 188.53125 -112.203125 C 188.9375 -113.410156 189.25 -114.660156 189.46875 -115.953125 C 189.695312 -117.242188 189.8125 -118.582031 189.8125 -119.96875 C 189.601562 -122.9375 188.335938 -124.226562 186.015625 -123.84375 C 183.960938 -123.4375 182.023438 -122.789062 180.203125 -121.90625 C 175.878906 -119.820312 171.613281 -117.515625 167.40625 -114.984375 C 144.832031 -101.285156 124.273438 -84.28125 105.734375 -63.96875 C 105.460938 -63.644531 105.164062 -63.320312 104.84375 -63 C 98.4375 -56.039062 92.078125 -49.015625 85.765625 -41.921875 C 79.460938 -34.835938 73.34375 -27.550781 67.40625 -20.0625 C 66.175781 -18.5 64.882812 -17.046875 63.53125 -15.703125 C 62.09375 -14.203125 60.375 -13.613281 58.375 -13.9375 C 57.519531 -14.050781 56.820312 -14.46875 56.28125 -15.1875 C 55.738281 -15.90625 55.523438 -16.75 55.640625 -17.71875 C 56.054688 -20.363281 56.644531 -22.921875 57.40625 -25.390625 C 59.789062 -33.210938 62.316406 -40.929688 64.984375 -48.546875 C 65.367188 -49.722656 65.722656 -50.851562 66.046875 -51.9375 C 66.753906 -54.789062 67.753906 -57.421875 69.046875 -59.828125 C 69.046875 -59.890625 69.015625 -59.921875 68.953125 -59.921875 C 68.628906 -60.097656 68.304688 -60.234375 67.984375 -60.328125 C 67.660156 -60.429688 67.335938 -60.320312 67.015625 -60 C 65.835938 -58.707031 64.707031 -57.359375 63.625 -55.953125 C 54.6875 -43.835938 45.835938 -31.625 37.078125 -19.3125 C 28.316406 -7 19.765625 5.519531 11.421875 18.25 C 10.710938 19.488281 9.925781 20.492188 9.0625 21.265625 C 8.195312 22.046875 7.039062 22.304688 5.59375 22.046875 C 4.945312 21.867188 4.445312 21.46875 4.09375 20.84375 C 3.75 20.226562 3.675781 19.628906 3.875 19.046875 C 4.644531 17.316406 5.484375 15.671875 6.390625 14.109375 C 8.972656 9.640625 11.53125 5.171875 14.0625 0.703125 C 19.144531 -8.140625 24.1875 -17.03125 29.1875 -25.96875 C 36.945312 -39.664062 43.867188 -54.082031 49.953125 -69.21875 C 52.335938 -75.039062 54.28125 -81.15625 55.78125 -87.5625 C 56.601562 -90.96875 56.953125 -94.523438 56.828125 -98.234375 C 56.453125 -104.171875 54.484375 -108.414062 50.921875 -110.96875 C 47.367188 -113.53125 42.695312 -114.742188 36.90625 -114.609375 C 31.113281 -114.484375 24.6875 -113.300781 17.625 -111.0625 C 10.570312 -108.832031 3.34375 -105.878906 -4.0625 -102.203125 C -11.46875 -98.523438 -18.609375 -94.46875 -25.484375 -90.03125 C -32.359375 -85.59375 -38.476562 -81.09375 -43.84375 -76.53125 C -49.207031 -71.976562 -53.390625 -67.703125 -56.390625 -63.703125 C -59.535156 -59.296875 -62.210938 -54.445312 -64.421875 -49.15625 C -65.535156 -46.632812 -66.179688 -43.890625 -66.359375 -40.921875 C -66.410156 -40.328125 -66.703125 -39.882812 -67.234375 -39.59375 C -67.765625 -39.300781 -68.351562 -39.210938 -69 -39.328125 C -70.03125 -39.648438 -70.675781 -40.457031 -70.9375 -41.75 C -71.113281 -43.457031 -70.984375 -45.015625 -70.546875 -46.421875 C -69.578125 -49.984375 -68.285156 -53.351562 -66.671875 -56.53125 C -63.703125 -62.082031 -59.1875 -67.753906 -53.125 -73.546875 C -47.070312 -79.335938 -40.019531 -84.882812 -31.96875 -90.1875 C -23.914062 -95.488281 -15.507812 -100.21875 -6.75 -104.375 C 2.007812 -108.539062 10.578125 -111.773438 18.953125 -114.078125 C 27.335938 -116.390625 34.882812 -117.425781 41.59375 -117.1875 C 48.3125 -116.957031 53.609375 -115.113281 57.484375 -111.65625 C 61.367188 -108.207031 63.253906 -102.765625 63.140625 -95.328125 C 62.929688 -90.535156 62.179688 -85.976562 60.890625 -81.65625 C 59.003906 -75.300781 56.832031 -69.160156 54.375 -63.234375 C 51.925781 -57.316406 49.320312 -51.523438 46.5625 -45.859375 C 45.707031 -44.085938 45.519531 -43.222656 46 -43.265625 C 46.488281 -43.316406 47.21875 -43.988281 48.1875 -45.28125 C 51.6875 -49.925781 55.1875 -54.507812 58.6875 -59.03125 C 61.0625 -62.0625 63.484375 -65.03125 65.953125 -67.9375 C 66.273438 -68.351562 66.597656 -68.753906 66.921875 -69.140625 C 68.335938 -70.867188 70.046875 -72.023438 72.046875 -72.609375 C 73.546875 -72.941406 74.804688 -72.609375 75.828125 -71.609375 C 76.859375 -70.609375 77.210938 -69.109375 76.890625 -67.109375 C 76.835938 -66.898438 76.78125 -66.691406 76.71875 -66.484375 C 76.1875 -63.898438 75.566406 -61.390625 74.859375 -58.953125 C 72.984375 -52.984375 71.046875 -47.0625 69.046875 -41.1875 C 68.078125 -38.15625 67.109375 -35.082031 66.140625 -31.96875 C 65.929688 -31.519531 65.632812 -30.710938 65.25 -29.546875 C 64.875 -28.515625 64.507812 -27.5 64.15625 -26.5 C 63.800781 -25.5 63.519531 -24.734375 63.3125 -24.203125 C 63.570312 -24.410156 65.96875 -27.101562 70.5 -32.28125 C 76.644531 -39.332031 83.921875 -47.585938 92.328125 -57.046875 C 100.734375 -66.515625 107.332031 -73.75 112.125 -78.75 C 120.96875 -87.65625 130.289062 -95.757812 140.09375 -103.0625 C 149.894531 -110.363281 160.054688 -116.96875 170.578125 -122.875 C 173.171875 -124.226562 175.832031 -125.453125 178.5625 -126.546875 C 179.15625 -126.742188 179.726562 -126.976562 180.28125 -127.25 C 182.875 -128.269531 185.625 -128.648438 188.53125 -128.390625 C 194.113281 -127.859375 196.671875 -124.332031 196.203125 -117.8125 C 195.878906 -113.75 194.984375 -109.941406 193.515625 -106.390625 Z M 68.734375 -60.1875 C 68.878906 -60.0625 68.984375 -59.972656 69.046875 -59.921875 C 69.046875 -59.921875 69.046875 -59.890625 69.046875 -59.828125 C 69.109375 -59.828125 69.140625 -59.859375 69.140625 -59.921875 C 69.015625 -59.972656 68.878906 -60.0625 68.734375 -60.1875 Z M 68.734375 -60.1875 "/></g></g></g><g fill="#004aad" fill-opacity="1"><g transform="translate(237.983772, 179.26679)"><g><path d="M 25.125 -16.921875 C 23.425781 -15.253906 21.441406 -13.820312 19.171875 -12.625 C 16.910156 -11.4375 15.015625 -10.660156 13.484375 -10.296875 C 11.960938 -9.929688 10.394531 -9.71875 8.78125 -9.65625 C 6.1875 -9.539062 3.800781 -9.894531 1.625 -10.71875 C -1.925781 -12.15625 -3.160156 -14.898438 -2.078125 -18.953125 C -1.046875 -22.453125 1.039062 -25.1875 4.1875 -27.15625 C 7.332031 -29.125 10.582031 -30.082031 13.9375 -30.03125 C 13.9375 -30.03125 13.960938 -30.03125 14.015625 -30.03125 C 14.867188 -30.082031 15.679688 -30.019531 16.453125 -29.84375 C 17.742188 -29.375 18.5625 -28.609375 18.90625 -27.546875 C 19.257812 -26.492188 19.023438 -25.320312 18.203125 -24.03125 C 16.328125 -21.175781 13.769531 -19.585938 10.53125 -19.265625 C 8.382812 -19.054688 6.316406 -19.160156 4.328125 -19.578125 C 3.941406 -19.640625 3.597656 -19.535156 3.296875 -19.265625 C 3.003906 -19.003906 2.832031 -18.679688 2.78125 -18.296875 C 2.1875 -15.765625 2.960938 -14.148438 5.109375 -13.453125 C 7.753906 -12.535156 10.503906 -12.535156 13.359375 -13.453125 C 16.648438 -14.472656 19.78125 -16.410156 22.75 -19.265625 C 25.71875 -22.117188 27.429688 -23.445312 27.890625 -23.25 C 28.347656 -23.0625 28.488281 -22.515625 28.3125 -21.609375 C 27.894531 -20.160156 26.832031 -18.597656 25.125 -16.921875 Z M 6.34375 -24.03125 C 6.164062 -23.820312 6.039062 -23.59375 5.96875 -23.34375 C 5.894531 -23.09375 5.992188 -22.863281 6.265625 -22.65625 C 7.285156 -22.070312 8.398438 -21.859375 9.609375 -22.015625 C 10.816406 -22.179688 11.835938 -22.640625 12.671875 -23.390625 C 13.515625 -24.140625 13.875 -25.054688 13.75 -26.140625 C 13.664062 -26.523438 13.460938 -26.769531 13.140625 -26.875 C 12.816406 -26.976562 12.492188 -27 12.171875 -26.9375 C 9.992188 -26.550781 8.050781 -25.582031 6.34375 -24.03125 Z M 6.34375 -24.03125 "/></g></g></g><g fill="#004aad" fill-opacity="1"><g transform="translate(263.646037, 179.26679)"><g><path d="M 34.921875 -22 C 35.390625 -21.414062 34.800781 -20.34375 33.15625 -18.78125 C 31.507812 -17.226562 29.757812 -15.921875 27.90625 -14.859375 C 26.050781 -13.796875 23.90625 -12.738281 21.46875 -11.6875 C 19.851562 -10.976562 18.132812 -10.738281 16.3125 -10.96875 C 14.488281 -11.207031 13.578125 -12.3125 13.578125 -14.28125 C 13.578125 -16.25 14.035156 -18.207031 14.953125 -20.15625 C 15.859375 -22.144531 16.050781 -23.171875 15.53125 -23.234375 C 15.019531 -23.296875 13.957031 -22.8125 12.34375 -21.78125 C 8.144531 -19.019531 4.238281 -15.859375 0.625 -12.296875 C -0.351562 -11.117188 -1.59375 -10.472656 -3.09375 -10.359375 C -3.851562 -10.359375 -4.445312 -10.597656 -4.875 -11.078125 C -5.300781 -11.566406 -5.351562 -12.09375 -5.03125 -12.65625 C -2.4375 -17.445312 0.179688 -22.175781 2.828125 -26.84375 C 3.410156 -27.820312 4.289062 -28.425781 5.46875 -28.65625 C 5.96875 -28.75 6.429688 -28.59375 6.859375 -28.1875 C 7.285156 -27.789062 7.5 -27.34375 7.5 -26.84375 C 7.4375 -26.375 7.242188 -25.816406 6.921875 -25.171875 C 6.773438 -24.796875 6.632812 -24.429688 6.5 -24.078125 C 6.375 -23.722656 6.332031 -23.425781 6.375 -23.1875 C 6.414062 -22.957031 6.597656 -22.882812 6.921875 -22.96875 C 7.359375 -23.207031 7.800781 -23.457031 8.25 -23.71875 C 9.363281 -24.363281 10.4375 -24.984375 11.46875 -25.578125 C 12.375 -26.097656 13.328125 -26.5625 14.328125 -26.96875 C 15.328125 -27.382812 16.367188 -27.671875 17.453125 -27.828125 C 19.222656 -27.941406 20.472656 -27.539062 21.203125 -26.625 C 21.941406 -25.71875 22.03125 -24.457031 21.46875 -22.84375 C 20.882812 -21.375 20.269531 -19.914062 19.625 -18.46875 C 18.832031 -17.125 18.695312 -16.097656 19.21875 -15.390625 C 19.75 -14.679688 22.207031 -15.488281 26.59375 -17.8125 L 29.890625 -19.75 C 33.003906 -21.75 34.679688 -22.5 34.921875 -22 Z M 34.921875 -22 "/></g></g></g><g fill="#004aad" fill-opacity="1"><g transform="translate(295.966392, 179.26679)"><g><path d="M 27.5625 -21.296875 C 23.613281 -16.648438 19.75 -13.222656 15.96875 -11.015625 C 12.195312 -8.816406 8.160156 -8.09375 3.859375 -8.84375 C -0.441406 -9.59375 -2.210938 -12.476562 -1.453125 -17.5 C -0.921875 -20.03125 -0.203125 -22.5 0.703125 -24.90625 C 2.960938 -30.519531 5.253906 -36.109375 7.578125 -41.671875 C 8.347656 -43.660156 9.160156 -45.671875 10.015625 -47.703125 C 10.210938 -48.140625 10.398438 -48.582031 10.578125 -49.03125 C 10.898438 -49.757812 11.222656 -50.507812 11.546875 -51.28125 C 12.015625 -52.570312 11.503906 -53.25 10.015625 -53.3125 C 9.160156 -53.3125 8.320312 -53.3125 7.5 -53.3125 C 7.113281 -53.3125 6.6875 -53.3125 6.21875 -53.3125 C 5.78125 -53.25 5.320312 -53.1875 4.84375 -53.125 C 4.082031 -53.070312 3.328125 -53.046875 2.578125 -53.046875 C 1.828125 -53.046875 1.128906 -53.234375 0.484375 -53.609375 C 0.304688 -53.671875 0.164062 -53.78125 0.0625 -53.9375 C -0.0390625 -54.101562 -0.09375 -54.289062 -0.09375 -54.5 C -0.03125 -54.613281 0.0625 -54.75 0.1875 -54.90625 C 0.320312 -55.070312 0.492188 -55.1875 0.703125 -55.25 C 1.347656 -55.507812 2.023438 -55.695312 2.734375 -55.8125 C 4.554688 -55.90625 6.363281 -55.976562 8.15625 -56.03125 C 8.863281 -56.03125 9.484375 -56.03125 10.015625 -56.03125 C 11.179688 -56.03125 12.050781 -56.070312 12.625 -56.15625 C 13.195312 -56.25 13.660156 -56.5625 14.015625 -57.09375 C 14.367188 -57.625 14.78125 -58.429688 15.25 -59.515625 C 15.519531 -60.109375 15.84375 -60.757812 16.21875 -61.46875 C 17.195312 -63.519531 18.171875 -65.617188 19.140625 -67.765625 C 19.578125 -68.734375 20.03125 -69.675781 20.5 -70.59375 C 20.882812 -71.5 21.488281 -72.203125 22.3125 -72.703125 C 23.101562 -73.085938 23.789062 -73.054688 24.375 -72.609375 C 24.550781 -72.492188 24.691406 -72.300781 24.796875 -72.03125 C 24.898438 -71.769531 24.953125 -71.539062 24.953125 -71.34375 C 24.953125 -70.195312 24.660156 -69.0625 24.078125 -67.9375 C 23.953125 -67.707031 23.816406 -67.429688 23.671875 -67.109375 C 23.296875 -66.046875 22.882812 -64.972656 22.4375 -63.890625 C 21.582031 -61.890625 20.773438 -59.847656 20.015625 -57.765625 C 19.804688 -57.378906 19.796875 -57.035156 19.984375 -56.734375 C 20.179688 -56.441406 20.472656 -56.296875 20.859375 -56.296875 C 22.941406 -56.242188 24.984375 -56.21875 26.984375 -56.21875 C 28.015625 -56.21875 29.039062 -56.21875 30.0625 -56.21875 C 33.300781 -56.15625 34.597656 -55.695312 33.953125 -54.84375 C 33.503906 -54.34375 33.023438 -54.054688 32.515625 -53.984375 C 32.003906 -53.910156 31.484375 -53.921875 30.953125 -54.015625 C 30.628906 -54.015625 30.304688 -54.015625 29.984375 -54.015625 C 26.691406 -53.804688 23.425781 -53.671875 20.1875 -53.609375 C 18.6875 -53.609375 17.6875 -52.929688 17.1875 -51.578125 C 16.664062 -50.285156 16.15625 -48.992188 15.65625 -47.703125 C 14.914062 -46.003906 14.222656 -44.34375 13.578125 -42.71875 C 12.929688 -41.195312 12.285156 -39.65625 11.640625 -38.09375 C 9.960938 -34.15625 8.347656 -30.203125 6.796875 -26.234375 C 5.816406 -23.648438 5.050781 -21.003906 4.5 -18.296875 C 3.257812 -13.390625 5.15625 -11.507812 10.1875 -12.65625 C 15.125 -13.832031 20.296875 -17.390625 25.703125 -23.328125 C 28.054688 -24.828125 28.675781 -24.148438 27.5625 -21.296875 Z M 27.5625 -21.296875 "/></g></g></g><g fill="#004aad" fill-opacity="1"><g transform="translate(321.011352, 179.26679)"><g><path d="M 17.53125 -18.578125 C 15.957031 -16.710938 14.097656 -15 11.953125 -13.4375 C 9.804688 -11.882812 7.378906 -10.835938 4.671875 -10.296875 C 1.972656 -9.753906 -0.125 -9.953125 -1.625 -10.890625 C -3.125 -11.828125 -3.421875 -13.914062 -2.515625 -17.15625 C -1.335938 -20.5 0.28125 -23.6875 2.34375 -26.71875 C 2.8125 -27.363281 3.484375 -27.816406 4.359375 -28.078125 C 5.003906 -28.234375 5.570312 -28.125 6.0625 -27.75 C 6.550781 -27.382812 6.734375 -26.921875 6.609375 -26.359375 C 6.171875 -25.304688 5.6875 -24.25 5.15625 -23.1875 C 4.625 -22.132812 4.269531 -21.445312 4.09375 -21.125 C 3.070312 -19.238281 2.351562 -17.269531 1.9375 -15.21875 C 1.9375 -14.039062 3.507812 -13.960938 6.65625 -14.984375 C 9.800781 -16.015625 12.859375 -17.90625 15.828125 -20.65625 C 18.796875 -23.40625 20.210938 -24.210938 20.078125 -23.078125 C 19.953125 -21.953125 19.101562 -20.453125 17.53125 -18.578125 Z M 9.828125 -33.328125 C 9.679688 -33.210938 9.378906 -33.070312 8.921875 -32.90625 C 8.472656 -32.75 7.988281 -32.632812 7.46875 -32.5625 C 6.957031 -32.488281 6.550781 -32.566406 6.25 -32.796875 C 5.957031 -33.035156 5.945312 -33.507812 6.21875 -34.21875 C 6.6875 -35.445312 7.175781 -36.523438 7.6875 -37.453125 C 8.207031 -38.378906 8.878906 -39.398438 9.703125 -40.515625 C 10.234375 -41.015625 10.804688 -41.285156 11.421875 -41.328125 C 12.035156 -41.378906 12.546875 -41.21875 12.953125 -40.84375 C 13.367188 -40.476562 13.488281 -39.972656 13.3125 -39.328125 C 12.664062 -37.003906 11.503906 -35.003906 9.828125 -33.328125 Z M 9.828125 -33.328125 "/></g></g></g><g fill="#004aad" fill-opacity="1"><g transform="translate(338.207716, 179.26679)"><g><path d="M 21.34375 -22.359375 C 16.695312 -20.617188 13.34375 -19.207031 11.28125 -18.125 C 9.78125 -17.382812 8.921875 -16.769531 8.703125 -16.28125 C 8.484375 -15.800781 8.65625 -14.914062 9.21875 -13.625 C 9.21875 -13.5625 9.257812 -13.472656 9.34375 -13.359375 C 9.988281 -11.796875 10.375 -10.179688 10.5 -8.515625 C 10.695312 -5.128906 7.820312 -2.757812 1.875 -1.40625 C -4.070312 -0.0507812 -8.050781 -0.00390625 -10.0625 -1.265625 C -12.082031 -2.535156 -12.703125 -4.140625 -11.921875 -6.078125 C -11.148438 -8.023438 -9.128906 -9.992188 -5.859375 -11.984375 C -2.597656 -13.984375 -0.414062 -15.425781 0.6875 -16.3125 C 1.789062 -17.195312 2.117188 -18.179688 1.671875 -19.265625 C 1.523438 -19.648438 1.363281 -20.03125 1.1875 -20.40625 C 0.8125 -21.320312 0.414062 -22.265625 0 -23.234375 C -0.757812 -24.992188 -1.085938 -26.726562 -0.984375 -28.4375 C -0.890625 -30.144531 -0.265625 -31.578125 0.890625 -32.734375 C 2.054688 -33.898438 3.863281 -34.523438 6.3125 -34.609375 C 7.6875 -34.671875 8.914062 -34.488281 10 -34.0625 C 11.09375 -33.632812 11.960938 -32.847656 12.609375 -31.703125 C 13.140625 -30.910156 12.976562 -30.191406 12.125 -29.546875 C 11.5625 -29.097656 10.957031 -29.035156 10.3125 -29.359375 C 9.90625 -29.535156 9.507812 -29.785156 9.125 -30.109375 C 9.125 -30.203125 9.125 -30.25 9.125 -30.25 C 8.945312 -30.363281 8.785156 -30.476562 8.640625 -30.59375 C 8.460938 -30.863281 8.269531 -31.070312 8.0625 -31.21875 C 7.300781 -31.769531 6.53125 -31.9375 5.75 -31.71875 C 4.96875 -31.5 4.390625 -30.90625 4.015625 -29.9375 C 3.742188 -29.175781 3.609375 -28.394531 3.609375 -27.59375 C 3.671875 -26.625 3.894531 -25.6875 4.28125 -24.78125 C 4.539062 -24.21875 4.773438 -23.703125 4.984375 -23.234375 C 5.484375 -21.941406 5.894531 -21.050781 6.21875 -20.5625 C 6.539062 -20.082031 6.925781 -19.878906 7.375 -19.953125 C 7.832031 -20.023438 12.003906 -21.515625 19.890625 -24.421875 C 21.585938 -24.984375 22.070312 -24.296875 21.34375 -22.359375 Z M 2.25 -5.515625 C 4.300781 -6.210938 5.164062 -7.59375 4.84375 -9.65625 C 4.84375 -9.800781 4.816406 -9.960938 4.765625 -10.140625 C 4.640625 -11.253906 4.398438 -12.113281 4.046875 -12.71875 C 3.703125 -13.320312 2.910156 -13.300781 1.671875 -12.65625 C -1.378906 -10.914062 -4.203125 -8.882812 -6.796875 -6.5625 C -6.960938 -6.363281 -7.125 -6.175781 -7.28125 -6 C -7.28125 -6 -7.304688 -5.953125 -7.359375 -5.859375 C -7.535156 -5.628906 -7.566406 -5.363281 -7.453125 -5.0625 C -7.335938 -4.769531 -7.070312 -4.625 -6.65625 -4.625 C -3.625 -4.15625 -0.65625 -4.453125 2.25 -5.515625 Z M 2.25 -5.515625 "/></g></g></g></g></g></svg>